<!-- Generated by IcoMoon.io -->
<svg version="1.1" xmlns="http://www.w3.org/2000/svg" width="32" height="32" viewBox="0 0 32 32"><title>figma</title>
<path d="M7.621 10.989c-1.636-1.066-2.718-2.913-2.718-5.011 0-3.301 2.676-5.977 5.977-5.977h10.241c3.301 0 5.977 2.676 5.977 5.977 0 2.099-1.082 3.945-2.718 5.011 1.637 1.066 2.718 2.913 2.718 5.011 0 3.301-2.676 5.977-5.977 5.977h-0.109c-1.56 0-2.981-0.598-4.046-1.577v5.568c0 3.338-2.735 6.032-6.059 6.032-3.294 0-6.004-2.669-6.004-5.977 0-2.099 1.082-3.945 2.718-5.011-1.636-1.066-2.718-2.913-2.718-5.012s1.082-3.945 2.718-5.011zM16.966 16c0 2.234 1.811 4.046 4.046 4.046h0.109c2.234 0 4.046-1.811 4.046-4.046s-1.811-4.046-4.046-4.046h-0.109c-2.234 0-4.046 1.811-4.046 4.046zM15.034 11.954h-4.155c-2.234 0-4.046 1.811-4.046 4.046 0 2.23 1.804 4.038 4.032 4.046h4.168v-8.091zM10.88 21.977c-0.005 0-0.009 0-0.014 0-2.228 0.007-4.032 1.816-4.032 4.046 0 2.228 1.832 4.046 4.073 4.046 2.271 0 4.128-1.843 4.128-4.1v-3.991h-4.155zM15.034 10.023v-8.091h-4.155c-2.234 0-4.046 1.811-4.046 4.046s1.811 4.046 4.046 4.046h4.155zM21.12 10.023c2.234 0 4.046-1.811 4.046-4.046s-1.811-4.046-4.046-4.046h-4.155v8.091h4.155z"></path>
</svg>
