<!-- Generated by IcoMoon.io -->
<svg version="1.1" xmlns="http://www.w3.org/2000/svg" width="32" height="32" viewBox="0 0 32 32"><title>github</title>
<path d="M16.013 0c-8.821 0-15.952 7.333-15.952 16.406 0 7.252 4.569 13.391 10.908 15.563 0.793 0.163 1.083-0.353 1.083-0.787 0-0.38-0.026-1.684-0.026-3.042-4.438 0.978-5.362-1.956-5.362-1.956-0.713-1.901-1.77-2.39-1.77-2.39-1.452-1.005 0.106-1.005 0.106-1.005 1.611 0.109 2.457 1.684 2.457 1.684 1.426 2.499 3.724 1.793 4.648 1.358 0.132-1.059 0.555-1.793 1.004-2.2-3.539-0.38-7.263-1.793-7.263-8.094 0-1.793 0.633-3.259 1.637-4.4-0.158-0.407-0.713-2.092 0.159-4.346 0 0 1.347-0.435 4.384 1.684 1.3-0.359 2.641-0.542 3.988-0.543 1.347 0 2.72 0.19 3.988 0.543 3.037-2.119 4.384-1.684 4.384-1.684 0.872 2.254 0.317 3.939 0.158 4.346 1.030 1.141 1.637 2.607 1.637 4.4 0 6.302-3.724 7.687-7.289 8.094 0.581 0.516 1.083 1.494 1.083 3.042 0 2.2-0.026 3.966-0.026 4.509 0 0.435 0.291 0.951 1.083 0.788 6.339-2.173 10.908-8.312 10.908-15.564 0.026-9.072-7.131-16.406-15.926-16.406z"></path>
</svg>
