<!-- Generated by IcoMoon.io -->
<svg version="1.1" xmlns="http://www.w3.org/2000/svg" width="157" height="32" viewBox="0 0 157 32"><title>exeen</title>
<path d="M112.511 1.583h-5.457c-2.090-0.045-4.16 0.427-6.024 1.373-1.692 0.871-3.095 2.214-4.038 3.867-0.978 1.755-1.472 3.737-1.433 5.745v7.512c-0.040 1.91 0.455 3.794 1.427 5.439 0.967 1.578 2.372 2.842 4.044 3.636 1.881 0.892 3.943 1.335 6.024 1.292h5.234c3.405 0 6.152-0.86 8.239-2.581s3.133-3.995 3.137-6.824h-6.331c0.016 0.555-0.1 1.106-0.339 1.608s-0.593 0.939-1.034 1.277c-0.915 0.731-2.117 1.096-3.606 1.094h-5.288c-1.532 0-2.756-0.449-3.672-1.346s-1.373-2.093-1.373-3.588v-2.025h21.769v-5.604c0-3.289-1.028-5.924-3.083-7.905s-4.788-2.971-8.197-2.969zM117.445 13.23h-15.546v-0.493c0-1.719 0.144-3.305 1.097-4.375s2.527-1.4 4.059-1.4h5.514c1.457 0 2.944 0.394 3.84 1.4s1.037 2.449 1.037 4.095v0.772z"></path>
<path d="M80.637 1.583h-5.457c-2.091-0.045-4.16 0.427-6.024 1.373-1.692 0.871-3.095 2.214-4.038 3.867-0.974 1.756-1.467 3.738-1.427 5.745v7.512c-0.038 1.91 0.456 3.793 1.427 5.439 0.965 1.577 2.368 2.841 4.038 3.636 1.881 0.892 3.943 1.335 6.024 1.292h5.234c3.405 0 6.152-0.86 8.239-2.581s3.134-3.995 3.14-6.824h-6.334c0.016 0.555-0.1 1.106-0.339 1.608s-0.593 0.939-1.034 1.277c-0.915 0.731-2.117 1.096-3.606 1.094h-5.3c-1.532 0-2.756-0.449-3.672-1.346s-1.373-2.093-1.373-3.588v-2.025h21.769v-5.604c0-3.289-1.028-5.924-3.083-7.905s-4.784-2.971-8.185-2.969zM85.571 13.23h-15.552v-0.493c0-1.719 0.144-3.305 1.097-4.375s2.527-1.4 4.059-1.4h5.514c1.457 0 2.945 0.394 3.843 1.4s1.034 2.449 1.034 4.095l0.006 0.772z"></path>
<path d="M16.955 1.584h-5.457c-2.085-0.042-4.149 0.429-6.009 1.373-1.698 0.868-3.106 2.212-4.053 3.867-0.974 1.756-1.467 3.738-1.427 5.745v7.512c-0.038 1.91 0.456 3.793 1.427 5.438 0.965 1.578 2.368 2.841 4.038 3.636 1.881 0.892 3.943 1.335 6.024 1.292h5.234c3.405 0 6.152-0.86 8.239-2.581s3.134-3.995 3.14-6.824h-6.334c0.016 0.555-0.1 1.106-0.339 1.608s-0.593 0.939-1.034 1.277c-0.915 0.731-2.117 1.096-3.606 1.094h-5.3c-1.532 0-2.756-0.449-3.672-1.346s-1.373-2.096-1.373-3.597v-2.016h21.769v-5.604c0-3.291-1.028-5.926-3.083-7.905s-4.784-2.969-8.185-2.969zM21.889 13.23h-15.546v-0.493c0-1.719 0.144-3.305 1.097-4.375s2.527-1.4 4.059-1.4h5.514c1.457 0 2.945 0.394 3.843 1.4s1.034 2.464 1.034 4.095v0.772z"></path>
<path d="M36.233 10.099c0.081-0.085 0.136-0.192 0.157-0.308s0.008-0.235-0.039-0.344-0.123-0.201-0.221-0.265c-0.098-0.065-0.213-0.099-0.331-0.099s-0.233 0.035-0.331 0.099-0.175 0.157-0.222 0.265c-0.046 0.108-0.060 0.228-0.039 0.344s0.076 0.223 0.157 0.308c0.116 0.114 0.272 0.178 0.434 0.178s0.318-0.064 0.434-0.178z"></path>
<path d="M35.876 5.069c0.226 0 0.409-0.183 0.409-0.409s-0.183-0.409-0.409-0.409c-0.226 0-0.409 0.183-0.409 0.409s0.183 0.409 0.409 0.409z"></path>
<path d="M30.888 26.997c-0.039 0.040-0.061 0.094-0.061 0.15s0.022 0.11 0.061 0.15c0.030 0.032 0.069 0.054 0.112 0.064s0.088 0.006 0.128-0.010c0.041-0.016 0.076-0.044 0.101-0.081s0.038-0.079 0.038-0.123c0-0.044-0.013-0.087-0.038-0.123s-0.060-0.064-0.101-0.081c-0.041-0.016-0.086-0.020-0.128-0.010s-0.082 0.032-0.112 0.064z"></path>
<path d="M36.221 7.545c0.075-0.075 0.127-0.171 0.147-0.275s0.010-0.213-0.031-0.311c-0.041-0.098-0.11-0.182-0.198-0.241s-0.192-0.091-0.299-0.091c-0.106 0-0.21 0.032-0.299 0.091s-0.157 0.143-0.198 0.241c-0.041 0.098-0.051 0.206-0.030 0.311s0.072 0.2 0.147 0.275c0.101 0.101 0.237 0.157 0.38 0.157s0.279-0.057 0.38-0.157z"></path>
<path d="M37.522 8.846c0.090-0.089 0.152-0.203 0.177-0.328s0.013-0.253-0.036-0.37c-0.048-0.117-0.13-0.218-0.236-0.288s-0.229-0.108-0.356-0.108c-0.127 0-0.251 0.038-0.356 0.108s-0.187 0.171-0.236 0.288-0.061 0.246-0.036 0.37c0.025 0.124 0.087 0.238 0.177 0.328 0.12 0.119 0.282 0.186 0.451 0.186s0.331-0.067 0.451-0.186z"></path>
<path d="M37.492 6.274c0.101-0.101 0.157-0.238 0.157-0.381s-0.057-0.28-0.158-0.381c-0.101-0.101-0.238-0.157-0.381-0.157s-0.28 0.057-0.381 0.159-0.157 0.238-0.157 0.381c0 0.143 0.057 0.28 0.159 0.381s0.238 0.157 0.381 0.157 0.28-0.057 0.38-0.159z"></path>
<path d="M33.718 2.5c0.045-0.045 0.070-0.106 0.070-0.17s-0.025-0.125-0.070-0.17c-0.022-0.024-0.048-0.044-0.078-0.057s-0.062-0.021-0.094-0.022c-0.032-0.001-0.065 0.005-0.095 0.017s-0.058 0.030-0.081 0.053c-0.023 0.023-0.041 0.050-0.053 0.081s-0.018 0.063-0.017 0.095 0.008 0.065 0.022 0.094c0.014 0.030 0.033 0.056 0.057 0.078 0.045 0.045 0.106 0.070 0.17 0.070s0.125-0.025 0.17-0.070z"></path>
<path d="M32.417 6.283c0.040-0.040 0.067-0.091 0.079-0.146s0.006-0.113-0.016-0.165-0.058-0.097-0.105-0.128c-0.047-0.031-0.102-0.048-0.159-0.048s-0.112 0.017-0.159 0.048c-0.047 0.031-0.084 0.076-0.105 0.128s-0.027 0.11-0.016 0.165c0.011 0.055 0.038 0.106 0.078 0.146 0.054 0.053 0.126 0.083 0.201 0.083s0.148-0.030 0.201-0.083z"></path>
<path d="M31.161 5.027c0.038-0.041 0.059-0.095 0.059-0.15s-0.021-0.109-0.059-0.15c-0.017-0.029-0.040-0.053-0.068-0.072s-0.060-0.030-0.093-0.034c-0.033-0.004-0.067-0.001-0.098 0.010s-0.060 0.029-0.084 0.052-0.042 0.052-0.052 0.084c-0.011 0.032-0.014 0.065-0.010 0.099s0.016 0.065 0.034 0.093c0.018 0.028 0.043 0.051 0.072 0.068 0.041 0.038 0.095 0.058 0.15 0.058s0.109-0.021 0.15-0.058z"></path>
<path d="M34.939 1.247c0.031-0.030 0.052-0.068 0.061-0.111s0.005-0.086-0.011-0.126c-0.016-0.040-0.044-0.074-0.080-0.098s-0.078-0.037-0.121-0.037c-0.043 0-0.085 0.013-0.121 0.037s-0.064 0.058-0.080 0.098c-0.016 0.040-0.020 0.084-0.011 0.126s0.030 0.081 0.061 0.111c0.040 0.039 0.094 0.061 0.15 0.061s0.11-0.022 0.15-0.061z"></path>
<path d="M32.46 3.771c0.045-0.045 0.070-0.106 0.070-0.17s-0.025-0.125-0.070-0.17c-0.046-0.041-0.106-0.064-0.167-0.062s-0.12 0.027-0.164 0.070c-0.044 0.044-0.069 0.102-0.070 0.164s0.021 0.122 0.062 0.167c0.045 0.045 0.106 0.070 0.17 0.070s0.125-0.025 0.17-0.070z"></path>
<path d="M34.605 6.34c0.226 0 0.409-0.183 0.409-0.409s-0.183-0.409-0.409-0.409c-0.226 0-0.409 0.183-0.409 0.409s0.183 0.409 0.409 0.409z"></path>
<path d="M38.339 7.758c0.352 0 0.637-0.285 0.637-0.637s-0.285-0.637-0.637-0.637c-0.352 0-0.637 0.285-0.637 0.637s0.285 0.637 0.637 0.637z"></path>
<path d="M33.62 7.485c0.055-0.056 0.093-0.126 0.108-0.203s0.007-0.157-0.023-0.229-0.081-0.134-0.146-0.178c-0.065-0.044-0.142-0.067-0.22-0.067s-0.155 0.023-0.22 0.067c-0.065 0.044-0.116 0.105-0.146 0.178s-0.038 0.152-0.023 0.229c0.015 0.077 0.053 0.148 0.108 0.203 0.037 0.037 0.081 0.066 0.129 0.086s0.1 0.030 0.152 0.030c0.052 0 0.104-0.010 0.152-0.030s0.092-0.049 0.129-0.086z"></path>
<path d="M36.197 2.503c0.040-0.040 0.067-0.091 0.079-0.146s0.005-0.113-0.016-0.165c-0.022-0.052-0.058-0.097-0.105-0.128s-0.102-0.048-0.159-0.048c-0.057 0-0.112 0.017-0.159 0.048s-0.084 0.076-0.105 0.128c-0.021 0.052-0.027 0.11-0.016 0.165s0.039 0.106 0.079 0.146c0.054 0.053 0.126 0.083 0.201 0.083s0.148-0.030 0.201-0.083z"></path>
<path d="M38.751 22.911c0.099-0.099 0.166-0.225 0.194-0.362s0.013-0.279-0.040-0.408c-0.053-0.129-0.144-0.24-0.26-0.317s-0.253-0.119-0.392-0.119c-0.14 0-0.276 0.041-0.392 0.119s-0.207 0.188-0.26 0.317c-0.053 0.129-0.067 0.271-0.040 0.408s0.095 0.263 0.194 0.362c0.133 0.131 0.312 0.205 0.499 0.205s0.366-0.074 0.499-0.205z"></path>
<path d="M36.531 21.658c0.096 0.096 0.218 0.161 0.351 0.188s0.271 0.013 0.396-0.039 0.232-0.14 0.308-0.252c0.075-0.113 0.116-0.245 0.116-0.381s-0.040-0.268-0.116-0.381c-0.075-0.113-0.182-0.2-0.308-0.252s-0.263-0.065-0.396-0.039c-0.133 0.027-0.255 0.092-0.351 0.188-0.128 0.128-0.2 0.302-0.2 0.484s0.072 0.355 0.2 0.484z"></path>
<path d="M36.546 10.411c-0.096 0.096-0.161 0.218-0.188 0.351s-0.013 0.271 0.039 0.396c0.052 0.125 0.14 0.232 0.252 0.308s0.245 0.116 0.381 0.116c0.136 0 0.268-0.040 0.381-0.116s0.201-0.182 0.252-0.308c0.052-0.125 0.065-0.263 0.039-0.396s-0.092-0.255-0.188-0.351c-0.128-0.128-0.302-0.2-0.484-0.2s-0.355 0.072-0.484 0.2z"></path>
<path d="M40.022 24.182c0.099-0.099 0.166-0.224 0.194-0.361s0.013-0.279-0.040-0.408c-0.053-0.129-0.144-0.24-0.26-0.317s-0.253-0.119-0.392-0.119c-0.14 0-0.276 0.041-0.392 0.119s-0.207 0.188-0.26 0.317c-0.053 0.129-0.067 0.271-0.040 0.408s0.095 0.263 0.194 0.361c0.133 0.132 0.312 0.205 0.499 0.205s0.366-0.074 0.499-0.205z"></path>
<path d="M40.071 8.852c0.099-0.099 0.166-0.225 0.194-0.362s0.013-0.279-0.040-0.408c-0.053-0.129-0.144-0.239-0.26-0.317s-0.253-0.119-0.392-0.119c-0.14 0-0.276 0.041-0.392 0.119s-0.207 0.188-0.26 0.317-0.067 0.271-0.040 0.408c0.027 0.137 0.095 0.263 0.194 0.362 0.133 0.131 0.312 0.205 0.499 0.205s0.366-0.074 0.499-0.205z"></path>
<path d="M41.35 22.932c0.107-0.107 0.18-0.243 0.209-0.391s0.014-0.302-0.043-0.441c-0.058-0.14-0.156-0.259-0.281-0.343s-0.273-0.129-0.424-0.129c-0.151 0-0.299 0.045-0.424 0.129s-0.223 0.203-0.281 0.343-0.073 0.293-0.043 0.441c0.030 0.148 0.102 0.284 0.209 0.391 0.143 0.143 0.337 0.223 0.539 0.223s0.396-0.080 0.539-0.223z"></path>
<path d="M41.566 8.936c0.105 0.105 0.239 0.176 0.385 0.205s0.297 0.014 0.434-0.043c0.137-0.057 0.254-0.153 0.337-0.277s0.126-0.269 0.126-0.417c0-0.148-0.044-0.294-0.126-0.417s-0.2-0.22-0.337-0.277c-0.137-0.057-0.288-0.072-0.434-0.043s-0.28 0.1-0.385 0.205c-0.070 0.070-0.125 0.153-0.163 0.244s-0.057 0.189-0.057 0.288c0 0.099 0.019 0.197 0.057 0.288s0.093 0.174 0.163 0.244z"></path>
<path d="M37.802 9.125c-0.099 0.099-0.166 0.225-0.194 0.362s-0.014 0.279 0.040 0.408c0.053 0.129 0.144 0.239 0.26 0.317s0.253 0.119 0.392 0.119c0.14 0 0.276-0.041 0.392-0.119s0.207-0.188 0.26-0.317c0.053-0.129 0.067-0.271 0.040-0.408s-0.095-0.263-0.194-0.362c-0.133-0.131-0.312-0.205-0.499-0.205s-0.366 0.074-0.499 0.205z"></path>
<path d="M41.398 10.18c0.107-0.107 0.18-0.243 0.209-0.391s0.015-0.302-0.043-0.441-0.156-0.259-0.281-0.343c-0.125-0.084-0.273-0.129-0.424-0.129s-0.299 0.045-0.424 0.129c-0.126 0.084-0.223 0.203-0.281 0.343s-0.073 0.293-0.043 0.441c0.029 0.148 0.102 0.284 0.209 0.391 0.143 0.143 0.337 0.223 0.539 0.223s0.396-0.080 0.539-0.223z"></path>
<path d="M40.326 7.599c0.096 0.096 0.218 0.161 0.351 0.188s0.271 0.013 0.396-0.039 0.232-0.14 0.308-0.252c0.075-0.113 0.116-0.245 0.116-0.381s-0.040-0.268-0.116-0.381c-0.075-0.113-0.183-0.2-0.308-0.252s-0.263-0.065-0.396-0.039c-0.133 0.027-0.255 0.092-0.351 0.188-0.128 0.128-0.2 0.302-0.2 0.484s0.072 0.355 0.2 0.484z"></path>
<path d="M40.011 6.319c0.082-0.085 0.137-0.192 0.158-0.308s0.008-0.236-0.038-0.344c-0.046-0.109-0.123-0.201-0.221-0.266s-0.214-0.1-0.332-0.1-0.233 0.035-0.332 0.1c-0.098 0.065-0.175 0.158-0.221 0.266s-0.059 0.228-0.038 0.344c0.021 0.116 0.076 0.223 0.158 0.308 0.056 0.058 0.123 0.104 0.198 0.136s0.154 0.048 0.235 0.048c0.081 0 0.161-0.016 0.235-0.048s0.141-0.078 0.198-0.136z"></path>
<path d="M39.001 20.582c-0.107 0.107-0.18 0.243-0.209 0.391s-0.014 0.301 0.043 0.441c0.058 0.14 0.156 0.259 0.281 0.343s0.273 0.129 0.424 0.129 0.299-0.045 0.424-0.129c0.125-0.084 0.223-0.203 0.281-0.343s0.073-0.293 0.043-0.441c-0.030-0.148-0.102-0.284-0.209-0.391-0.143-0.143-0.337-0.223-0.539-0.223s-0.396 0.080-0.539 0.223z"></path>
<path d="M38.712 5.018c0.048-0.048 0.086-0.104 0.112-0.167s0.039-0.129 0.039-0.197-0.013-0.134-0.039-0.197c-0.026-0.062-0.064-0.119-0.112-0.167-0.097-0.095-0.228-0.148-0.364-0.148s-0.266 0.053-0.364 0.148c-0.048 0.048-0.086 0.104-0.112 0.167s-0.039 0.129-0.039 0.197 0.013 0.134 0.039 0.197c0.026 0.062 0.064 0.119 0.112 0.167s0.104 0.086 0.167 0.111 0.129 0.039 0.197 0.039c0.068 0 0.134-0.013 0.197-0.039s0.119-0.064 0.167-0.111z"></path>
<path d="M37.772 19.353c-0.105 0.105-0.177 0.239-0.206 0.384s-0.014 0.297 0.042 0.434c0.057 0.137 0.153 0.255 0.277 0.337s0.269 0.127 0.418 0.127 0.294-0.044 0.418-0.127c0.124-0.083 0.22-0.2 0.277-0.337s0.072-0.289 0.042-0.434c-0.029-0.146-0.101-0.28-0.206-0.384-0.142-0.139-0.332-0.217-0.53-0.217s-0.389 0.078-0.53 0.217z"></path>
<path d="M40.127 11.451c0.107-0.107 0.18-0.243 0.209-0.391s0.014-0.302-0.043-0.441c-0.058-0.139-0.156-0.259-0.281-0.343s-0.273-0.129-0.424-0.129-0.299 0.045-0.424 0.129c-0.125 0.084-0.223 0.203-0.281 0.343s-0.073 0.293-0.043 0.441c0.030 0.148 0.102 0.284 0.209 0.391 0.143 0.143 0.337 0.223 0.539 0.223s0.396-0.080 0.539-0.223z"></path>
<path d="M38.847 11.652c-0.105-0.105-0.239-0.177-0.385-0.206s-0.297-0.014-0.434 0.042c-0.137 0.057-0.255 0.153-0.337 0.277s-0.127 0.269-0.127 0.418 0.044 0.294 0.127 0.418c0.083 0.124 0.2 0.22 0.337 0.277s0.289 0.072 0.434 0.042 0.28-0.101 0.385-0.206c0.14-0.141 0.219-0.332 0.219-0.53s-0.079-0.39-0.219-0.53z"></path>
<path d="M37.408 3.714c0.057-0.057 0.096-0.13 0.111-0.209s0.007-0.161-0.024-0.236c-0.031-0.075-0.083-0.138-0.151-0.183s-0.146-0.069-0.227-0.069c-0.081 0-0.16 0.024-0.227 0.069s-0.12 0.108-0.151 0.183c-0.031 0.075-0.039 0.157-0.024 0.236s0.054 0.152 0.111 0.209c0.077 0.076 0.181 0.119 0.29 0.119s0.213-0.043 0.29-0.119z"></path>
<path d="M41.552 23.145c-0.105 0.105-0.177 0.239-0.206 0.384s-0.015 0.297 0.042 0.434c0.057 0.137 0.153 0.255 0.277 0.337s0.269 0.127 0.418 0.127 0.294-0.044 0.418-0.127c0.124-0.083 0.22-0.2 0.277-0.337s0.072-0.289 0.042-0.434-0.101-0.28-0.206-0.384c-0.142-0.139-0.332-0.217-0.53-0.217s-0.389 0.078-0.53 0.217z"></path>
<path d="M41.449 20.579c-0.116 0.116-0.195 0.265-0.227 0.426s-0.016 0.329 0.048 0.481 0.17 0.282 0.307 0.373c0.137 0.091 0.298 0.14 0.462 0.14s0.325-0.049 0.462-0.14c0.137-0.092 0.244-0.221 0.307-0.373s0.080-0.319 0.048-0.481c-0.032-0.161-0.111-0.31-0.228-0.426-0.156-0.156-0.368-0.243-0.589-0.243s-0.432 0.087-0.589 0.243z"></path>
<path d="M39.13 25.75c-0.081 0.085-0.136 0.192-0.157 0.308s-0.008 0.235 0.039 0.344c0.046 0.108 0.123 0.201 0.221 0.265s0.213 0.1 0.331 0.1c0.118 0 0.233-0.035 0.331-0.1s0.175-0.157 0.221-0.265c0.046-0.108 0.060-0.228 0.039-0.344s-0.076-0.223-0.157-0.308c-0.116-0.114-0.272-0.178-0.434-0.178s-0.318 0.064-0.434 0.178z"></path>
<path d="M42.721 21.85c-0.116 0.116-0.195 0.265-0.227 0.426s-0.016 0.329 0.048 0.481c0.063 0.152 0.17 0.282 0.307 0.373s0.298 0.14 0.462 0.14 0.325-0.049 0.462-0.14c0.137-0.091 0.244-0.221 0.307-0.373s0.080-0.319 0.048-0.481c-0.032-0.161-0.111-0.31-0.227-0.426-0.156-0.156-0.368-0.243-0.589-0.243s-0.432 0.087-0.589 0.243z"></path>
<path d="M40.311 24.47c-0.096 0.096-0.161 0.218-0.188 0.351s-0.013 0.271 0.039 0.396c0.052 0.125 0.14 0.232 0.252 0.308s0.245 0.116 0.381 0.116c0.136 0 0.268-0.040 0.381-0.116s0.2-0.182 0.252-0.308c0.052-0.125 0.065-0.263 0.039-0.396s-0.092-0.255-0.188-0.351c-0.128-0.128-0.302-0.2-0.484-0.2s-0.355 0.072-0.484 0.2z"></path>
<path d="M36.684 25.762c-0.075 0.075-0.127 0.171-0.147 0.275s-0.010 0.212 0.030 0.311c0.041 0.098 0.11 0.182 0.198 0.242s0.192 0.091 0.299 0.091 0.21-0.032 0.299-0.091c0.088-0.059 0.157-0.143 0.198-0.242s0.051-0.206 0.031-0.311-0.072-0.2-0.147-0.275c-0.101-0.101-0.238-0.157-0.38-0.157s-0.279 0.057-0.38 0.157z"></path>
<path d="M37.841 24.461c-0.090 0.089-0.152 0.203-0.177 0.328s-0.013 0.253 0.036 0.37c0.048 0.117 0.13 0.218 0.236 0.288s0.229 0.108 0.356 0.108c0.127 0 0.251-0.038 0.356-0.108s0.188-0.171 0.236-0.288c0.048-0.117 0.061-0.246 0.036-0.37s-0.087-0.238-0.176-0.328c-0.12-0.119-0.282-0.186-0.451-0.186s-0.331 0.067-0.451 0.186z"></path>
<path d="M37.97 27.052c-0.048 0.048-0.086 0.104-0.112 0.167s-0.039 0.129-0.039 0.197 0.013 0.134 0.039 0.197c0.026 0.062 0.064 0.119 0.112 0.167s0.104 0.086 0.167 0.111c0.062 0.026 0.129 0.039 0.197 0.039s0.134-0.013 0.197-0.039c0.062-0.026 0.119-0.064 0.167-0.111 0.096-0.096 0.151-0.227 0.151-0.364s-0.054-0.267-0.151-0.364c-0.096-0.096-0.227-0.151-0.364-0.151s-0.267 0.054-0.364 0.151z"></path>
<path d="M40.133 12.821c-0.116-0.116-0.265-0.195-0.426-0.227s-0.329-0.015-0.481 0.048c-0.152 0.063-0.282 0.17-0.373 0.307s-0.14 0.298-0.14 0.462 0.049 0.325 0.14 0.462c0.092 0.137 0.221 0.244 0.373 0.307s0.319 0.080 0.481 0.048c0.161-0.032 0.31-0.111 0.426-0.227 0.156-0.156 0.243-0.368 0.243-0.589s-0.087-0.432-0.243-0.589z"></path>
<path d="M43.913 9.041c-0.116-0.116-0.265-0.195-0.426-0.227s-0.329-0.015-0.481 0.048c-0.152 0.063-0.282 0.17-0.373 0.307s-0.14 0.298-0.14 0.462c0 0.165 0.049 0.325 0.14 0.462s0.221 0.244 0.373 0.307c0.152 0.063 0.319 0.080 0.481 0.048s0.31-0.111 0.426-0.227c0.156-0.156 0.243-0.368 0.243-0.589s-0.087-0.432-0.243-0.589z"></path>
<path d="M56.71 0.61l-10.589 10.589c-0.273-0.044-0.553 0.020-0.781 0.177 0.088-0.136 0.14-0.292 0.148-0.454s-0.025-0.323-0.098-0.467c-0.073-0.144-0.183-0.267-0.319-0.355s-0.292-0.14-0.454-0.149c-0.162-0.009-0.323 0.025-0.467 0.098s-0.267 0.183-0.356 0.319c-0.088 0.136-0.14 0.292-0.149 0.454s0.025 0.323 0.098 0.467c-0.18-0.092-0.384-0.122-0.583-0.086s-0.38 0.136-0.516 0.284c-0.136 0.149-0.22 0.338-0.239 0.539s0.029 0.402 0.136 0.573c-0.177-0.11-0.386-0.158-0.593-0.134s-0.4 0.117-0.548 0.264c-0.148 0.147-0.241 0.341-0.264 0.548s0.024 0.416 0.134 0.593c-0.137-0.085-0.294-0.133-0.456-0.139s-0.321 0.031-0.464 0.107-0.263 0.187-0.349 0.324c-0.086 0.137-0.135 0.294-0.141 0.455s0.030 0.322 0.105 0.465c0.075 0.143 0.186 0.264 0.323 0.35s0.293 0.136 0.454 0.143c0.161 0.007 0.322-0.028 0.465-0.103-0.1 0.172-0.153 0.367-0.153 0.566s0.053 0.394 0.153 0.566c-0.141-0.074-0.298-0.11-0.456-0.105s-0.313 0.051-0.449 0.133c-0.136 0.082-0.248 0.198-0.326 0.336s-0.119 0.294-0.119 0.453c0 0.159 0.041 0.315 0.119 0.453s0.19 0.254 0.326 0.336c0.136 0.082 0.29 0.128 0.449 0.133s0.316-0.031 0.456-0.105c-0.093 0.179-0.125 0.384-0.090 0.584s0.135 0.381 0.283 0.518 0.339 0.221 0.54 0.239c0.201 0.018 0.403-0.031 0.574-0.139-0.11 0.177-0.158 0.386-0.134 0.593s0.117 0.4 0.264 0.548c0.147 0.147 0.34 0.24 0.548 0.264s0.416-0.024 0.593-0.134c-0.086 0.137-0.135 0.295-0.141 0.457s0.030 0.323 0.106 0.467c0.075 0.144 0.187 0.265 0.324 0.352s0.295 0.136 0.457 0.143c0.162 0.007 0.323-0.029 0.467-0.104s0.265-0.187 0.352-0.324c0.087-0.137 0.137-0.294 0.144-0.456s-0.029-0.323-0.103-0.467c0.224 0.133 0.488 0.184 0.745 0.144l10.468 10.468 4.681-4.681-10.667-10.649 10.772-10.769-4.681-4.681zM41.59 17.833c0.066-0.128 0.101-0.27 0.101-0.415s-0.035-0.287-0.101-0.415c0.207 0.124 0.448 0.178 0.688 0.156-0.022 0.236 0.030 0.472 0.15 0.676-0.13-0.066-0.273-0.1-0.419-0.101s-0.289 0.033-0.42 0.098zM42.336 14.93c-0.253-0.037-0.51 0.014-0.73 0.144 0.072-0.141 0.106-0.298 0.1-0.455s-0.053-0.312-0.136-0.446c0.135 0.083 0.288 0.13 0.446 0.136s0.315-0.028 0.455-0.1c-0.125 0.218-0.173 0.472-0.135 0.721zM42.792 19.137c0.085-0.134 0.132-0.288 0.139-0.446s-0.029-0.315-0.103-0.456c0.22 0.13 0.477 0.181 0.73 0.144-0.037 0.253 0.014 0.511 0.144 0.73-0.142-0.074-0.3-0.11-0.459-0.104s-0.315 0.052-0.451 0.134v-0.003zM43.577 16.234c-0.143-0.039-0.293-0.039-0.436 0 0.050-0.153 0.050-0.318 0-0.472 0.069 0.038 0.144 0.061 0.223 0.068s0.157-0.003 0.231-0.029c-0.044 0.14-0.050 0.289-0.018 0.433zM43.619 13.65c-0.253-0.037-0.511 0.014-0.73 0.144 0.072-0.141 0.107-0.298 0.1-0.455s-0.053-0.312-0.136-0.446c0.135 0.083 0.288 0.13 0.446 0.136s0.315-0.028 0.456-0.1c-0.131 0.219-0.183 0.477-0.147 0.73l0.012-0.009zM44.075 20.402c0.085-0.134 0.133-0.288 0.139-0.446s-0.029-0.315-0.103-0.456c0.22 0.13 0.477 0.181 0.73 0.144-0.037 0.253 0.014 0.51 0.144 0.73-0.144-0.075-0.304-0.111-0.466-0.105s-0.319 0.055-0.456 0.141l0.012-0.009zM44.881 14.93c-0.143-0.039-0.293-0.039-0.436 0 0.046-0.154 0.039-0.319-0.018-0.469 0.070 0.037 0.146 0.059 0.225 0.065s0.157-0.004 0.232-0.029c-0.044 0.143-0.049 0.296-0.015 0.442l0.012-0.009zM44.817 17.049c-0.036 0.139-0.036 0.285 0 0.424-0.14-0.039-0.287-0.039-0.427 0 0.048-0.149 0.048-0.31 0-0.46 0.128 0.066 0.276 0.083 0.415 0.045l0.012-0.009zM44.899 12.379c-0.256-0.040-0.517 0.011-0.739 0.144 0.067-0.13 0.101-0.273 0.101-0.419s-0.035-0.29-0.101-0.419c0.144 0.074 0.305 0.108 0.467 0.1s0.319-0.058 0.455-0.145c-0.156 0.216-0.226 0.483-0.195 0.748l0.012-0.009zM46.079 16.111c-0.107-0.030-0.22-0.030-0.328 0 0.038-0.116 0.038-0.241 0-0.358 0.052 0.029 0.109 0.046 0.168 0.051s0.119-0.003 0.174-0.024c-0.038 0.109-0.047 0.226-0.027 0.339l0.012-0.009z"></path>
<path d="M42.676 10.279c-0.116-0.116-0.265-0.195-0.426-0.227s-0.329-0.015-0.481 0.048-0.282 0.17-0.373 0.307c-0.092 0.137-0.14 0.298-0.14 0.462s0.049 0.325 0.14 0.462c0.091 0.137 0.221 0.244 0.373 0.307s0.319 0.080 0.481 0.048c0.161-0.032 0.31-0.111 0.426-0.227 0.156-0.156 0.243-0.368 0.243-0.589s-0.087-0.432-0.243-0.589z"></path>
<path d="M40.178 19.308c-0.116 0.116-0.196 0.265-0.228 0.426s-0.015 0.329 0.048 0.481c0.063 0.152 0.17 0.282 0.307 0.373s0.298 0.14 0.462 0.14c0.164 0 0.325-0.049 0.462-0.14s0.244-0.221 0.307-0.373 0.080-0.319 0.048-0.481c-0.032-0.161-0.111-0.31-0.227-0.426-0.157-0.156-0.368-0.243-0.589-0.243s-0.432 0.087-0.589 0.243z"></path>
<path d="M32.403 26.189c0.040-0.040 0.068-0.091 0.079-0.146s0.006-0.113-0.016-0.165c-0.022-0.052-0.058-0.097-0.105-0.128s-0.102-0.048-0.159-0.048-0.112 0.017-0.159 0.048c-0.047 0.031-0.084 0.076-0.105 0.128s-0.027 0.11-0.016 0.165c0.011 0.055 0.038 0.106 0.079 0.146 0.053 0.053 0.126 0.083 0.201 0.083s0.148-0.030 0.201-0.083z"></path>
<path d="M38.941 18.070c-0.116 0.116-0.195 0.265-0.227 0.426s-0.016 0.329 0.048 0.481c0.063 0.152 0.17 0.282 0.307 0.373s0.298 0.14 0.462 0.14c0.165 0 0.325-0.049 0.462-0.14s0.244-0.221 0.307-0.373 0.080-0.319 0.048-0.481c-0.032-0.161-0.111-0.31-0.228-0.426-0.156-0.156-0.368-0.243-0.589-0.243s-0.432 0.087-0.589 0.243z"></path>
<path d="M36.823 28.364c-0.037 0.037-0.066 0.081-0.086 0.129s-0.030 0.1-0.030 0.152 0.010 0.104 0.030 0.152c0.020 0.048 0.049 0.092 0.086 0.129 0.075 0.074 0.176 0.115 0.281 0.115s0.206-0.041 0.281-0.115c0.075-0.075 0.116-0.176 0.116-0.281s-0.042-0.206-0.116-0.281c-0.075-0.074-0.176-0.116-0.281-0.116s-0.206 0.042-0.281 0.116z"></path>
<path d="M41.405 11.55c-0.116-0.116-0.265-0.195-0.426-0.227s-0.329-0.015-0.481 0.048c-0.152 0.063-0.282 0.17-0.373 0.307s-0.14 0.298-0.14 0.462 0.049 0.325 0.14 0.462c0.092 0.137 0.221 0.244 0.373 0.307s0.319 0.080 0.481 0.048c0.161-0.032 0.31-0.111 0.426-0.227 0.156-0.156 0.243-0.368 0.243-0.589s-0.087-0.432-0.243-0.589z"></path>
<path d="M33.382 29.491c-0.023 0.022-0.041 0.049-0.053 0.078s-0.019 0.060-0.019 0.092c0 0.032 0.006 0.063 0.019 0.092s0.030 0.056 0.053 0.078c0.034 0.034 0.076 0.057 0.123 0.066s0.095 0.004 0.139-0.014c0.044-0.018 0.081-0.049 0.108-0.089s0.041-0.086 0.041-0.134c0-0.048-0.014-0.094-0.041-0.134s-0.064-0.070-0.108-0.088c-0.044-0.018-0.092-0.023-0.139-0.014s-0.089 0.032-0.123 0.066z"></path>
<path d="M34.863 26.396c0.057-0.057 0.096-0.13 0.111-0.209s0.007-0.161-0.024-0.236c-0.031-0.074-0.083-0.138-0.151-0.183s-0.146-0.069-0.227-0.069c-0.081 0-0.16 0.024-0.227 0.069s-0.12 0.108-0.151 0.183c-0.031 0.075-0.039 0.156-0.024 0.236s0.054 0.152 0.111 0.209c0.077 0.077 0.181 0.12 0.29 0.12s0.213-0.043 0.29-0.12z"></path>
<path d="M34.71 28.833c0.186 0 0.336-0.151 0.336-0.336s-0.151-0.336-0.336-0.336c-0.186 0-0.336 0.151-0.336 0.336s0.151 0.336 0.336 0.336z"></path>
<path d="M34.668 30.777c-0.039 0.040-0.061 0.094-0.061 0.15s0.022 0.11 0.061 0.15c0.041 0.038 0.095 0.058 0.15 0.058s0.109-0.021 0.15-0.058c0.025-0.042 0.035-0.091 0.029-0.139s-0.028-0.093-0.063-0.128c-0.034-0.034-0.079-0.056-0.128-0.063s-0.097 0.004-0.139 0.029z"></path>
<path d="M33.25 4.573c-0.032 0.031-0.056 0.069-0.074 0.109s-0.026 0.085-0.026 0.129 0.009 0.088 0.026 0.129c0.017 0.041 0.042 0.078 0.074 0.109 0.064 0.062 0.15 0.097 0.239 0.097s0.175-0.035 0.239-0.097c0.031-0.031 0.056-0.069 0.073-0.11s0.026-0.085 0.026-0.129c0-0.044-0.009-0.088-0.026-0.129s-0.042-0.078-0.073-0.11c-0.031-0.031-0.068-0.056-0.11-0.073s-0.085-0.026-0.129-0.026c-0.044 0-0.088 0.009-0.129 0.026s-0.078 0.042-0.11 0.073z"></path>
<path d="M33.679 27.463c0.047-0.047 0.079-0.107 0.091-0.172s0.006-0.133-0.020-0.194c-0.026-0.061-0.069-0.114-0.124-0.151s-0.12-0.056-0.187-0.056-0.131 0.020-0.187 0.056c-0.055 0.037-0.098 0.089-0.124 0.151s-0.032 0.129-0.020 0.194c0.013 0.065 0.045 0.125 0.091 0.172 0.031 0.032 0.068 0.056 0.109 0.074s0.085 0.026 0.129 0.026 0.088-0.009 0.129-0.026c0.041-0.017 0.078-0.042 0.109-0.074z"></path>
<path d="M32.111 28.22c-0.023 0.022-0.041 0.048-0.053 0.078s-0.019 0.060-0.019 0.092c0 0.032 0.006 0.063 0.019 0.092s0.030 0.056 0.053 0.078c0.034 0.034 0.076 0.057 0.123 0.066s0.095 0.004 0.139-0.014c0.044-0.018 0.081-0.049 0.108-0.089s0.041-0.086 0.041-0.134c0-0.048-0.014-0.094-0.041-0.134s-0.064-0.070-0.108-0.088c-0.044-0.018-0.092-0.023-0.139-0.014s-0.089 0.032-0.123 0.066z"></path>
<path d="M33.613 25.155c0.057-0.057 0.096-0.13 0.111-0.209s0.007-0.161-0.024-0.236c-0.031-0.075-0.084-0.138-0.151-0.183s-0.146-0.069-0.227-0.069c-0.081 0-0.16 0.024-0.227 0.069s-0.12 0.108-0.151 0.183c-0.031 0.074-0.039 0.156-0.024 0.236s0.054 0.152 0.111 0.209c0.077 0.076 0.181 0.119 0.29 0.119s0.213-0.043 0.29-0.119z"></path>
<path d="M37.474 24.095c0.090-0.089 0.152-0.203 0.177-0.328s0.013-0.253-0.036-0.37c-0.048-0.117-0.13-0.218-0.236-0.288s-0.229-0.108-0.356-0.108c-0.127 0-0.251 0.038-0.356 0.108s-0.187 0.171-0.236 0.288c-0.048 0.117-0.061 0.246-0.036 0.37s0.087 0.238 0.177 0.328c0.12 0.119 0.282 0.186 0.451 0.186s0.331-0.067 0.451-0.186z"></path>
<path d="M36.119 27.667c0.057-0.057 0.095-0.13 0.111-0.209s0.007-0.161-0.024-0.236-0.083-0.138-0.151-0.183c-0.067-0.045-0.146-0.069-0.227-0.069s-0.16 0.024-0.227 0.069c-0.067 0.045-0.12 0.108-0.151 0.183s-0.039 0.156-0.024 0.236 0.054 0.152 0.111 0.209c0.077 0.076 0.181 0.12 0.29 0.12s0.213-0.043 0.29-0.12z"></path>
<path d="M35.78 29.566c-0.040 0.040-0.067 0.091-0.079 0.146s-0.006 0.113 0.016 0.165c0.022 0.052 0.058 0.097 0.105 0.128s0.102 0.048 0.159 0.048c0.057 0 0.112-0.017 0.159-0.048s0.084-0.076 0.105-0.128c0.022-0.052 0.027-0.11 0.016-0.165s-0.038-0.106-0.078-0.146c-0.054-0.053-0.126-0.083-0.201-0.083s-0.148 0.030-0.201 0.083z"></path>
<path d="M35.413 24.492c-0.075 0.075-0.127 0.171-0.147 0.275s-0.010 0.212 0.031 0.311c0.041 0.098 0.11 0.182 0.198 0.241s0.192 0.091 0.299 0.091 0.21-0.032 0.299-0.091c0.088-0.059 0.157-0.143 0.198-0.241s0.051-0.207 0.031-0.311-0.072-0.2-0.147-0.275c-0.101-0.101-0.238-0.157-0.38-0.157s-0.279 0.056-0.38 0.157z"></path>
<path d="M34.205 8.070c-0.072 0.072-0.121 0.163-0.14 0.263s-0.010 0.203 0.029 0.297c0.039 0.094 0.105 0.174 0.189 0.23s0.184 0.087 0.285 0.087c0.102 0 0.201-0.030 0.285-0.087s0.15-0.137 0.189-0.23c0.039-0.094 0.049-0.197 0.029-0.297s-0.069-0.191-0.14-0.263c-0.097-0.095-0.228-0.148-0.364-0.148s-0.266 0.053-0.364 0.148z"></path>
<path d="M36.219 22.845c0.081-0.085 0.136-0.192 0.157-0.308s0.008-0.235-0.039-0.344c-0.046-0.108-0.123-0.2-0.222-0.265s-0.213-0.099-0.331-0.099-0.233 0.035-0.331 0.099c-0.098 0.065-0.175 0.157-0.221 0.265s-0.060 0.228-0.039 0.344c0.021 0.116 0.076 0.223 0.157 0.308 0.116 0.114 0.272 0.178 0.434 0.178s0.318-0.064 0.434-0.178z"></path>
<path d="M34.19 23.272c-0.096 0.096-0.151 0.227-0.151 0.364s0.054 0.267 0.151 0.364c0.096 0.096 0.227 0.151 0.364 0.151s0.267-0.054 0.364-0.151c0.048-0.048 0.086-0.104 0.112-0.167s0.039-0.129 0.039-0.197-0.013-0.134-0.039-0.197c-0.026-0.062-0.064-0.119-0.112-0.167s-0.104-0.086-0.167-0.112c-0.062-0.026-0.129-0.039-0.197-0.039s-0.134 0.013-0.197 0.039c-0.062 0.026-0.119 0.064-0.167 0.112z"></path>
<path d="M34.521 3.314c-0.063 0.063-0.099 0.149-0.099 0.239s0.036 0.176 0.099 0.239c0.063 0.063 0.149 0.099 0.239 0.099s0.176-0.036 0.239-0.099c0.062-0.064 0.097-0.15 0.097-0.239s-0.035-0.175-0.097-0.239c-0.031-0.032-0.068-0.057-0.109-0.074s-0.085-0.026-0.129-0.026-0.088 0.009-0.129 0.026c-0.041 0.017-0.078 0.042-0.109 0.074z"></path>
<path d="M154.204 4.552c-1.737-1.827-4.043-2.74-6.92-2.74h-6.397c-1.346 0-3.263 0.559-4.606 1.304s-2.506 1.671-2.683 1.947v-2.809h-6.009v27.971h6.46v-15.525c0-2.404 1.112-3.882 2.241-5.012 1.389-1.393 3.256-2.207 5.222-2.275h5.108c0.517-0.013 1.030 0.094 1.5 0.313s0.881 0.542 1.205 0.946c0.691 0.841 1.037 1.935 1.037 3.281v18.272h6.445v-18.44c0.004-2.989-0.863-5.399-2.602-7.232z"></path>
</svg>
