<!-- Generated by IcoMoon.io -->
<svg version="1.1" xmlns="http://www.w3.org/2000/svg" width="32" height="32" viewBox="0 0 32 32"><title>linked-in</title>
<path d="M28.19 0h-24.381c-2.103 0-3.81 1.707-3.81 3.81v24.381c0 2.103 1.707 3.81 3.81 3.81h24.381c2.103 0 3.81-1.707 3.81-3.81v-24.381c0-2.103-1.707-3.81-3.81-3.81zM9.905 12.19v14.476h-4.571v-14.476h4.571zM5.333 7.977c0-1.067 0.914-1.882 2.286-1.882s2.232 0.815 2.286 1.882c0 1.067-0.853 1.928-2.286 1.928-1.371 0-2.286-0.861-2.286-1.928zM26.667 26.667h-4.572c0 0 0-7.055 0-7.619 0-1.524-0.762-3.048-2.667-3.078h-0.061c-1.844 0-2.606 1.57-2.606 3.078 0 0.693 0 7.619 0 7.619h-4.571v-14.476h4.571v1.95c0 0 1.47-1.95 4.427-1.95 3.025 0 5.478 2.080 5.478 6.293v8.183z"></path>
</svg>
