<svg aria-hidden="true" style="position: absolute; width: 0; height: 0; overflow: hidden;" version="1.1" xmlns="http://www.w3.org/2000/svg" xmlns:xlink="http://www.w3.org/1999/xlink">
<defs>
<symbol id="wcag-icondev-dojo" viewBox="0 0 196 32">
<title>dev-dojo</title>
<path d="M28.464 15.239l-8.154 15.010h-19.562v-1.833h1.798v-24.742h-1.798v-1.841h19.561l8.155 13.406zM3.607 28.416h16.23v-24.742h-9.145l-7.085 24.742zM40.791 3.675l-3.042 10.713h10.609v-1.835h1.461v5.506h-1.461v-1.833h-11.161l-3.489 12.187h12.371l5.103-6.576 0.035 9.285h-1.461v-0.877h-19.086v-1.832h1.981v-24.738h-1.508v-1.841h18.614v-0.956h1.461l-0.035 9.329-5.103-6.532-5.288 0.001zM76.358 1.834l-8.146 28.416h-6.646l-8.145-28.416h10.463v1.841h-1.762v24.741h5.541v-24.741h-2.236v-1.841h10.931zM119.127 15.239l-8.154 15.010h-19.561v-1.833h1.798v-24.742h-1.798v-1.841h19.561l8.154 13.406zM94.271 28.416h16.229v-24.742h-9.145l-7.084 24.742zM150.217 15.24l-7.935 15.011h-13.064l-7.891-15.011 7.855-13.406h13.142l7.891 13.406zM129.473 28.417h12.591v-24.743h-12.591v24.743zM164.341 1.834v1.841h-2.349v26.574h-9.575v-5.69l4.401 5.173 4.182-5.173-7.523-22.726 10.863 0.001zM195.44 15.24l-7.935 15.011h-13.064l-7.89-15.011 7.855-13.406h13.144l7.89 13.406zM174.695 28.417h12.591v-24.743h-12.591v24.743z"></path>
</symbol>
<symbol id="wcag-iconexeen" viewBox="0 0 157 32">
<title>exeen</title>
<path d="M112.511 1.583h-5.457c-2.090-0.045-4.16 0.427-6.024 1.373-1.692 0.871-3.095 2.214-4.038 3.867-0.978 1.755-1.472 3.737-1.433 5.745v7.512c-0.040 1.91 0.455 3.794 1.427 5.439 0.967 1.578 2.372 2.842 4.044 3.636 1.881 0.892 3.943 1.335 6.024 1.292h5.234c3.405 0 6.152-0.86 8.239-2.581s3.133-3.995 3.137-6.824h-6.331c0.016 0.555-0.1 1.106-0.339 1.608s-0.593 0.939-1.034 1.277c-0.915 0.731-2.117 1.096-3.606 1.094h-5.288c-1.532 0-2.756-0.449-3.672-1.346s-1.373-2.093-1.373-3.588v-2.025h21.769v-5.604c0-3.289-1.028-5.924-3.083-7.905s-4.788-2.971-8.197-2.969zM117.445 13.23h-15.546v-0.493c0-1.719 0.144-3.305 1.097-4.375s2.527-1.4 4.059-1.4h5.514c1.457 0 2.944 0.394 3.84 1.4s1.037 2.449 1.037 4.095v0.772z"></path>
<path d="M80.637 1.583h-5.457c-2.091-0.045-4.16 0.427-6.024 1.373-1.692 0.871-3.095 2.214-4.038 3.867-0.974 1.756-1.467 3.738-1.427 5.745v7.512c-0.038 1.91 0.456 3.793 1.427 5.439 0.965 1.577 2.368 2.841 4.038 3.636 1.881 0.892 3.943 1.335 6.024 1.292h5.234c3.405 0 6.152-0.86 8.239-2.581s3.134-3.995 3.14-6.824h-6.334c0.016 0.555-0.1 1.106-0.339 1.608s-0.593 0.939-1.034 1.277c-0.915 0.731-2.117 1.096-3.606 1.094h-5.3c-1.532 0-2.756-0.449-3.672-1.346s-1.373-2.093-1.373-3.588v-2.025h21.769v-5.604c0-3.289-1.028-5.924-3.083-7.905s-4.784-2.971-8.185-2.969zM85.571 13.23h-15.552v-0.493c0-1.719 0.144-3.305 1.097-4.375s2.527-1.4 4.059-1.4h5.514c1.457 0 2.945 0.394 3.843 1.4s1.034 2.449 1.034 4.095l0.006 0.772z"></path>
<path d="M16.955 1.584h-5.457c-2.085-0.042-4.149 0.429-6.009 1.373-1.698 0.868-3.106 2.212-4.053 3.867-0.974 1.756-1.467 3.738-1.427 5.745v7.512c-0.038 1.91 0.456 3.793 1.427 5.438 0.965 1.578 2.368 2.841 4.038 3.636 1.881 0.892 3.943 1.335 6.024 1.292h5.234c3.405 0 6.152-0.86 8.239-2.581s3.134-3.995 3.14-6.824h-6.334c0.016 0.555-0.1 1.106-0.339 1.608s-0.593 0.939-1.034 1.277c-0.915 0.731-2.117 1.096-3.606 1.094h-5.3c-1.532 0-2.756-0.449-3.672-1.346s-1.373-2.096-1.373-3.597v-2.016h21.769v-5.604c0-3.291-1.028-5.926-3.083-7.905s-4.784-2.969-8.185-2.969zM21.889 13.23h-15.546v-0.493c0-1.719 0.144-3.305 1.097-4.375s2.527-1.4 4.059-1.4h5.514c1.457 0 2.945 0.394 3.843 1.4s1.034 2.464 1.034 4.095v0.772z"></path>
<path d="M36.233 10.099c0.081-0.085 0.136-0.192 0.157-0.308s0.008-0.235-0.039-0.344-0.123-0.201-0.221-0.265c-0.098-0.065-0.213-0.099-0.331-0.099s-0.233 0.035-0.331 0.099-0.175 0.157-0.222 0.265c-0.046 0.108-0.060 0.228-0.039 0.344s0.076 0.223 0.157 0.308c0.116 0.114 0.272 0.178 0.434 0.178s0.318-0.064 0.434-0.178z"></path>
<path d="M35.876 5.069c0.226 0 0.409-0.183 0.409-0.409s-0.183-0.409-0.409-0.409c-0.226 0-0.409 0.183-0.409 0.409s0.183 0.409 0.409 0.409z"></path>
<path d="M30.888 26.997c-0.039 0.040-0.061 0.094-0.061 0.15s0.022 0.11 0.061 0.15c0.030 0.032 0.069 0.054 0.112 0.064s0.088 0.006 0.128-0.010c0.041-0.016 0.076-0.044 0.101-0.081s0.038-0.079 0.038-0.123c0-0.044-0.013-0.087-0.038-0.123s-0.060-0.064-0.101-0.081c-0.041-0.016-0.086-0.020-0.128-0.010s-0.082 0.032-0.112 0.064z"></path>
<path d="M36.221 7.545c0.075-0.075 0.127-0.171 0.147-0.275s0.010-0.213-0.031-0.311c-0.041-0.098-0.11-0.182-0.198-0.241s-0.192-0.091-0.299-0.091c-0.106 0-0.21 0.032-0.299 0.091s-0.157 0.143-0.198 0.241c-0.041 0.098-0.051 0.206-0.030 0.311s0.072 0.2 0.147 0.275c0.101 0.101 0.237 0.157 0.38 0.157s0.279-0.057 0.38-0.157z"></path>
<path d="M37.522 8.846c0.090-0.089 0.152-0.203 0.177-0.328s0.013-0.253-0.036-0.37c-0.048-0.117-0.13-0.218-0.236-0.288s-0.229-0.108-0.356-0.108c-0.127 0-0.251 0.038-0.356 0.108s-0.187 0.171-0.236 0.288-0.061 0.246-0.036 0.37c0.025 0.124 0.087 0.238 0.177 0.328 0.12 0.119 0.282 0.186 0.451 0.186s0.331-0.067 0.451-0.186z"></path>
<path d="M37.492 6.274c0.101-0.101 0.157-0.238 0.157-0.381s-0.057-0.28-0.158-0.381c-0.101-0.101-0.238-0.157-0.381-0.157s-0.28 0.057-0.381 0.159-0.157 0.238-0.157 0.381c0 0.143 0.057 0.28 0.159 0.381s0.238 0.157 0.381 0.157 0.28-0.057 0.38-0.159z"></path>
<path d="M33.718 2.5c0.045-0.045 0.070-0.106 0.070-0.17s-0.025-0.125-0.070-0.17c-0.022-0.024-0.048-0.044-0.078-0.057s-0.062-0.021-0.094-0.022c-0.032-0.001-0.065 0.005-0.095 0.017s-0.058 0.030-0.081 0.053c-0.023 0.023-0.041 0.050-0.053 0.081s-0.018 0.063-0.017 0.095 0.008 0.065 0.022 0.094c0.014 0.030 0.033 0.056 0.057 0.078 0.045 0.045 0.106 0.070 0.17 0.070s0.125-0.025 0.17-0.070z"></path>
<path d="M32.417 6.283c0.040-0.040 0.067-0.091 0.079-0.146s0.006-0.113-0.016-0.165-0.058-0.097-0.105-0.128c-0.047-0.031-0.102-0.048-0.159-0.048s-0.112 0.017-0.159 0.048c-0.047 0.031-0.084 0.076-0.105 0.128s-0.027 0.11-0.016 0.165c0.011 0.055 0.038 0.106 0.078 0.146 0.054 0.053 0.126 0.083 0.201 0.083s0.148-0.030 0.201-0.083z"></path>
<path d="M31.161 5.027c0.038-0.041 0.059-0.095 0.059-0.15s-0.021-0.109-0.059-0.15c-0.017-0.029-0.040-0.053-0.068-0.072s-0.060-0.030-0.093-0.034c-0.033-0.004-0.067-0.001-0.098 0.010s-0.060 0.029-0.084 0.052-0.042 0.052-0.052 0.084c-0.011 0.032-0.014 0.065-0.010 0.099s0.016 0.065 0.034 0.093c0.018 0.028 0.043 0.051 0.072 0.068 0.041 0.038 0.095 0.058 0.15 0.058s0.109-0.021 0.15-0.058z"></path>
<path d="M34.939 1.247c0.031-0.030 0.052-0.068 0.061-0.111s0.005-0.086-0.011-0.126c-0.016-0.040-0.044-0.074-0.080-0.098s-0.078-0.037-0.121-0.037c-0.043 0-0.085 0.013-0.121 0.037s-0.064 0.058-0.080 0.098c-0.016 0.040-0.020 0.084-0.011 0.126s0.030 0.081 0.061 0.111c0.040 0.039 0.094 0.061 0.15 0.061s0.11-0.022 0.15-0.061z"></path>
<path d="M32.46 3.771c0.045-0.045 0.070-0.106 0.070-0.17s-0.025-0.125-0.070-0.17c-0.046-0.041-0.106-0.064-0.167-0.062s-0.12 0.027-0.164 0.070c-0.044 0.044-0.069 0.102-0.070 0.164s0.021 0.122 0.062 0.167c0.045 0.045 0.106 0.070 0.17 0.070s0.125-0.025 0.17-0.070z"></path>
<path d="M34.605 6.34c0.226 0 0.409-0.183 0.409-0.409s-0.183-0.409-0.409-0.409c-0.226 0-0.409 0.183-0.409 0.409s0.183 0.409 0.409 0.409z"></path>
<path d="M38.339 7.758c0.352 0 0.637-0.285 0.637-0.637s-0.285-0.637-0.637-0.637c-0.352 0-0.637 0.285-0.637 0.637s0.285 0.637 0.637 0.637z"></path>
<path d="M33.62 7.485c0.055-0.056 0.093-0.126 0.108-0.203s0.007-0.157-0.023-0.229-0.081-0.134-0.146-0.178c-0.065-0.044-0.142-0.067-0.22-0.067s-0.155 0.023-0.22 0.067c-0.065 0.044-0.116 0.105-0.146 0.178s-0.038 0.152-0.023 0.229c0.015 0.077 0.053 0.148 0.108 0.203 0.037 0.037 0.081 0.066 0.129 0.086s0.1 0.030 0.152 0.030c0.052 0 0.104-0.010 0.152-0.030s0.092-0.049 0.129-0.086z"></path>
<path d="M36.197 2.503c0.040-0.040 0.067-0.091 0.079-0.146s0.005-0.113-0.016-0.165c-0.022-0.052-0.058-0.097-0.105-0.128s-0.102-0.048-0.159-0.048c-0.057 0-0.112 0.017-0.159 0.048s-0.084 0.076-0.105 0.128c-0.021 0.052-0.027 0.11-0.016 0.165s0.039 0.106 0.079 0.146c0.054 0.053 0.126 0.083 0.201 0.083s0.148-0.030 0.201-0.083z"></path>
<path d="M38.751 22.911c0.099-0.099 0.166-0.225 0.194-0.362s0.013-0.279-0.040-0.408c-0.053-0.129-0.144-0.24-0.26-0.317s-0.253-0.119-0.392-0.119c-0.14 0-0.276 0.041-0.392 0.119s-0.207 0.188-0.26 0.317c-0.053 0.129-0.067 0.271-0.040 0.408s0.095 0.263 0.194 0.362c0.133 0.131 0.312 0.205 0.499 0.205s0.366-0.074 0.499-0.205z"></path>
<path d="M36.531 21.658c0.096 0.096 0.218 0.161 0.351 0.188s0.271 0.013 0.396-0.039 0.232-0.14 0.308-0.252c0.075-0.113 0.116-0.245 0.116-0.381s-0.040-0.268-0.116-0.381c-0.075-0.113-0.182-0.2-0.308-0.252s-0.263-0.065-0.396-0.039c-0.133 0.027-0.255 0.092-0.351 0.188-0.128 0.128-0.2 0.302-0.2 0.484s0.072 0.355 0.2 0.484z"></path>
<path d="M36.546 10.411c-0.096 0.096-0.161 0.218-0.188 0.351s-0.013 0.271 0.039 0.396c0.052 0.125 0.14 0.232 0.252 0.308s0.245 0.116 0.381 0.116c0.136 0 0.268-0.040 0.381-0.116s0.201-0.182 0.252-0.308c0.052-0.125 0.065-0.263 0.039-0.396s-0.092-0.255-0.188-0.351c-0.128-0.128-0.302-0.2-0.484-0.2s-0.355 0.072-0.484 0.2z"></path>
<path d="M40.022 24.182c0.099-0.099 0.166-0.224 0.194-0.361s0.013-0.279-0.040-0.408c-0.053-0.129-0.144-0.24-0.26-0.317s-0.253-0.119-0.392-0.119c-0.14 0-0.276 0.041-0.392 0.119s-0.207 0.188-0.26 0.317c-0.053 0.129-0.067 0.271-0.040 0.408s0.095 0.263 0.194 0.361c0.133 0.132 0.312 0.205 0.499 0.205s0.366-0.074 0.499-0.205z"></path>
<path d="M40.071 8.852c0.099-0.099 0.166-0.225 0.194-0.362s0.013-0.279-0.040-0.408c-0.053-0.129-0.144-0.239-0.26-0.317s-0.253-0.119-0.392-0.119c-0.14 0-0.276 0.041-0.392 0.119s-0.207 0.188-0.26 0.317-0.067 0.271-0.040 0.408c0.027 0.137 0.095 0.263 0.194 0.362 0.133 0.131 0.312 0.205 0.499 0.205s0.366-0.074 0.499-0.205z"></path>
<path d="M41.35 22.932c0.107-0.107 0.18-0.243 0.209-0.391s0.014-0.302-0.043-0.441c-0.058-0.14-0.156-0.259-0.281-0.343s-0.273-0.129-0.424-0.129c-0.151 0-0.299 0.045-0.424 0.129s-0.223 0.203-0.281 0.343-0.073 0.293-0.043 0.441c0.030 0.148 0.102 0.284 0.209 0.391 0.143 0.143 0.337 0.223 0.539 0.223s0.396-0.080 0.539-0.223z"></path>
<path d="M41.566 8.936c0.105 0.105 0.239 0.176 0.385 0.205s0.297 0.014 0.434-0.043c0.137-0.057 0.254-0.153 0.337-0.277s0.126-0.269 0.126-0.417c0-0.148-0.044-0.294-0.126-0.417s-0.2-0.22-0.337-0.277c-0.137-0.057-0.288-0.072-0.434-0.043s-0.28 0.1-0.385 0.205c-0.070 0.070-0.125 0.153-0.163 0.244s-0.057 0.189-0.057 0.288c0 0.099 0.019 0.197 0.057 0.288s0.093 0.174 0.163 0.244z"></path>
<path d="M37.802 9.125c-0.099 0.099-0.166 0.225-0.194 0.362s-0.014 0.279 0.040 0.408c0.053 0.129 0.144 0.239 0.26 0.317s0.253 0.119 0.392 0.119c0.14 0 0.276-0.041 0.392-0.119s0.207-0.188 0.26-0.317c0.053-0.129 0.067-0.271 0.040-0.408s-0.095-0.263-0.194-0.362c-0.133-0.131-0.312-0.205-0.499-0.205s-0.366 0.074-0.499 0.205z"></path>
<path d="M41.398 10.18c0.107-0.107 0.18-0.243 0.209-0.391s0.015-0.302-0.043-0.441-0.156-0.259-0.281-0.343c-0.125-0.084-0.273-0.129-0.424-0.129s-0.299 0.045-0.424 0.129c-0.126 0.084-0.223 0.203-0.281 0.343s-0.073 0.293-0.043 0.441c0.029 0.148 0.102 0.284 0.209 0.391 0.143 0.143 0.337 0.223 0.539 0.223s0.396-0.080 0.539-0.223z"></path>
<path d="M40.326 7.599c0.096 0.096 0.218 0.161 0.351 0.188s0.271 0.013 0.396-0.039 0.232-0.14 0.308-0.252c0.075-0.113 0.116-0.245 0.116-0.381s-0.040-0.268-0.116-0.381c-0.075-0.113-0.183-0.2-0.308-0.252s-0.263-0.065-0.396-0.039c-0.133 0.027-0.255 0.092-0.351 0.188-0.128 0.128-0.2 0.302-0.2 0.484s0.072 0.355 0.2 0.484z"></path>
<path d="M40.011 6.319c0.082-0.085 0.137-0.192 0.158-0.308s0.008-0.236-0.038-0.344c-0.046-0.109-0.123-0.201-0.221-0.266s-0.214-0.1-0.332-0.1-0.233 0.035-0.332 0.1c-0.098 0.065-0.175 0.158-0.221 0.266s-0.059 0.228-0.038 0.344c0.021 0.116 0.076 0.223 0.158 0.308 0.056 0.058 0.123 0.104 0.198 0.136s0.154 0.048 0.235 0.048c0.081 0 0.161-0.016 0.235-0.048s0.141-0.078 0.198-0.136z"></path>
<path d="M39.001 20.582c-0.107 0.107-0.18 0.243-0.209 0.391s-0.014 0.301 0.043 0.441c0.058 0.14 0.156 0.259 0.281 0.343s0.273 0.129 0.424 0.129 0.299-0.045 0.424-0.129c0.125-0.084 0.223-0.203 0.281-0.343s0.073-0.293 0.043-0.441c-0.030-0.148-0.102-0.284-0.209-0.391-0.143-0.143-0.337-0.223-0.539-0.223s-0.396 0.080-0.539 0.223z"></path>
<path d="M38.712 5.018c0.048-0.048 0.086-0.104 0.112-0.167s0.039-0.129 0.039-0.197-0.013-0.134-0.039-0.197c-0.026-0.062-0.064-0.119-0.112-0.167-0.097-0.095-0.228-0.148-0.364-0.148s-0.266 0.053-0.364 0.148c-0.048 0.048-0.086 0.104-0.112 0.167s-0.039 0.129-0.039 0.197 0.013 0.134 0.039 0.197c0.026 0.062 0.064 0.119 0.112 0.167s0.104 0.086 0.167 0.111 0.129 0.039 0.197 0.039c0.068 0 0.134-0.013 0.197-0.039s0.119-0.064 0.167-0.111z"></path>
<path d="M37.772 19.353c-0.105 0.105-0.177 0.239-0.206 0.384s-0.014 0.297 0.042 0.434c0.057 0.137 0.153 0.255 0.277 0.337s0.269 0.127 0.418 0.127 0.294-0.044 0.418-0.127c0.124-0.083 0.22-0.2 0.277-0.337s0.072-0.289 0.042-0.434c-0.029-0.146-0.101-0.28-0.206-0.384-0.142-0.139-0.332-0.217-0.53-0.217s-0.389 0.078-0.53 0.217z"></path>
<path d="M40.127 11.451c0.107-0.107 0.18-0.243 0.209-0.391s0.014-0.302-0.043-0.441c-0.058-0.139-0.156-0.259-0.281-0.343s-0.273-0.129-0.424-0.129-0.299 0.045-0.424 0.129c-0.125 0.084-0.223 0.203-0.281 0.343s-0.073 0.293-0.043 0.441c0.030 0.148 0.102 0.284 0.209 0.391 0.143 0.143 0.337 0.223 0.539 0.223s0.396-0.080 0.539-0.223z"></path>
<path d="M38.847 11.652c-0.105-0.105-0.239-0.177-0.385-0.206s-0.297-0.014-0.434 0.042c-0.137 0.057-0.255 0.153-0.337 0.277s-0.127 0.269-0.127 0.418 0.044 0.294 0.127 0.418c0.083 0.124 0.2 0.22 0.337 0.277s0.289 0.072 0.434 0.042 0.28-0.101 0.385-0.206c0.14-0.141 0.219-0.332 0.219-0.53s-0.079-0.39-0.219-0.53z"></path>
<path d="M37.408 3.714c0.057-0.057 0.096-0.13 0.111-0.209s0.007-0.161-0.024-0.236c-0.031-0.075-0.083-0.138-0.151-0.183s-0.146-0.069-0.227-0.069c-0.081 0-0.16 0.024-0.227 0.069s-0.12 0.108-0.151 0.183c-0.031 0.075-0.039 0.157-0.024 0.236s0.054 0.152 0.111 0.209c0.077 0.076 0.181 0.119 0.29 0.119s0.213-0.043 0.29-0.119z"></path>
<path d="M41.552 23.145c-0.105 0.105-0.177 0.239-0.206 0.384s-0.015 0.297 0.042 0.434c0.057 0.137 0.153 0.255 0.277 0.337s0.269 0.127 0.418 0.127 0.294-0.044 0.418-0.127c0.124-0.083 0.22-0.2 0.277-0.337s0.072-0.289 0.042-0.434-0.101-0.28-0.206-0.384c-0.142-0.139-0.332-0.217-0.53-0.217s-0.389 0.078-0.53 0.217z"></path>
<path d="M41.449 20.579c-0.116 0.116-0.195 0.265-0.227 0.426s-0.016 0.329 0.048 0.481 0.17 0.282 0.307 0.373c0.137 0.091 0.298 0.14 0.462 0.14s0.325-0.049 0.462-0.14c0.137-0.092 0.244-0.221 0.307-0.373s0.080-0.319 0.048-0.481c-0.032-0.161-0.111-0.31-0.228-0.426-0.156-0.156-0.368-0.243-0.589-0.243s-0.432 0.087-0.589 0.243z"></path>
<path d="M39.13 25.75c-0.081 0.085-0.136 0.192-0.157 0.308s-0.008 0.235 0.039 0.344c0.046 0.108 0.123 0.201 0.221 0.265s0.213 0.1 0.331 0.1c0.118 0 0.233-0.035 0.331-0.1s0.175-0.157 0.221-0.265c0.046-0.108 0.060-0.228 0.039-0.344s-0.076-0.223-0.157-0.308c-0.116-0.114-0.272-0.178-0.434-0.178s-0.318 0.064-0.434 0.178z"></path>
<path d="M42.721 21.85c-0.116 0.116-0.195 0.265-0.227 0.426s-0.016 0.329 0.048 0.481c0.063 0.152 0.17 0.282 0.307 0.373s0.298 0.14 0.462 0.14 0.325-0.049 0.462-0.14c0.137-0.091 0.244-0.221 0.307-0.373s0.080-0.319 0.048-0.481c-0.032-0.161-0.111-0.31-0.227-0.426-0.156-0.156-0.368-0.243-0.589-0.243s-0.432 0.087-0.589 0.243z"></path>
<path d="M40.311 24.47c-0.096 0.096-0.161 0.218-0.188 0.351s-0.013 0.271 0.039 0.396c0.052 0.125 0.14 0.232 0.252 0.308s0.245 0.116 0.381 0.116c0.136 0 0.268-0.040 0.381-0.116s0.2-0.182 0.252-0.308c0.052-0.125 0.065-0.263 0.039-0.396s-0.092-0.255-0.188-0.351c-0.128-0.128-0.302-0.2-0.484-0.2s-0.355 0.072-0.484 0.2z"></path>
<path d="M36.684 25.762c-0.075 0.075-0.127 0.171-0.147 0.275s-0.010 0.212 0.030 0.311c0.041 0.098 0.11 0.182 0.198 0.242s0.192 0.091 0.299 0.091 0.21-0.032 0.299-0.091c0.088-0.059 0.157-0.143 0.198-0.242s0.051-0.206 0.031-0.311-0.072-0.2-0.147-0.275c-0.101-0.101-0.238-0.157-0.38-0.157s-0.279 0.057-0.38 0.157z"></path>
<path d="M37.841 24.461c-0.090 0.089-0.152 0.203-0.177 0.328s-0.013 0.253 0.036 0.37c0.048 0.117 0.13 0.218 0.236 0.288s0.229 0.108 0.356 0.108c0.127 0 0.251-0.038 0.356-0.108s0.188-0.171 0.236-0.288c0.048-0.117 0.061-0.246 0.036-0.37s-0.087-0.238-0.176-0.328c-0.12-0.119-0.282-0.186-0.451-0.186s-0.331 0.067-0.451 0.186z"></path>
<path d="M37.97 27.052c-0.048 0.048-0.086 0.104-0.112 0.167s-0.039 0.129-0.039 0.197 0.013 0.134 0.039 0.197c0.026 0.062 0.064 0.119 0.112 0.167s0.104 0.086 0.167 0.111c0.062 0.026 0.129 0.039 0.197 0.039s0.134-0.013 0.197-0.039c0.062-0.026 0.119-0.064 0.167-0.111 0.096-0.096 0.151-0.227 0.151-0.364s-0.054-0.267-0.151-0.364c-0.096-0.096-0.227-0.151-0.364-0.151s-0.267 0.054-0.364 0.151z"></path>
<path d="M40.133 12.821c-0.116-0.116-0.265-0.195-0.426-0.227s-0.329-0.015-0.481 0.048c-0.152 0.063-0.282 0.17-0.373 0.307s-0.14 0.298-0.14 0.462 0.049 0.325 0.14 0.462c0.092 0.137 0.221 0.244 0.373 0.307s0.319 0.080 0.481 0.048c0.161-0.032 0.31-0.111 0.426-0.227 0.156-0.156 0.243-0.368 0.243-0.589s-0.087-0.432-0.243-0.589z"></path>
<path d="M43.913 9.041c-0.116-0.116-0.265-0.195-0.426-0.227s-0.329-0.015-0.481 0.048c-0.152 0.063-0.282 0.17-0.373 0.307s-0.14 0.298-0.14 0.462c0 0.165 0.049 0.325 0.14 0.462s0.221 0.244 0.373 0.307c0.152 0.063 0.319 0.080 0.481 0.048s0.31-0.111 0.426-0.227c0.156-0.156 0.243-0.368 0.243-0.589s-0.087-0.432-0.243-0.589z"></path>
<path d="M56.71 0.61l-10.589 10.589c-0.273-0.044-0.553 0.020-0.781 0.177 0.088-0.136 0.14-0.292 0.148-0.454s-0.025-0.323-0.098-0.467c-0.073-0.144-0.183-0.267-0.319-0.355s-0.292-0.14-0.454-0.149c-0.162-0.009-0.323 0.025-0.467 0.098s-0.267 0.183-0.356 0.319c-0.088 0.136-0.14 0.292-0.149 0.454s0.025 0.323 0.098 0.467c-0.18-0.092-0.384-0.122-0.583-0.086s-0.38 0.136-0.516 0.284c-0.136 0.149-0.22 0.338-0.239 0.539s0.029 0.402 0.136 0.573c-0.177-0.11-0.386-0.158-0.593-0.134s-0.4 0.117-0.548 0.264c-0.148 0.147-0.241 0.341-0.264 0.548s0.024 0.416 0.134 0.593c-0.137-0.085-0.294-0.133-0.456-0.139s-0.321 0.031-0.464 0.107-0.263 0.187-0.349 0.324c-0.086 0.137-0.135 0.294-0.141 0.455s0.030 0.322 0.105 0.465c0.075 0.143 0.186 0.264 0.323 0.35s0.293 0.136 0.454 0.143c0.161 0.007 0.322-0.028 0.465-0.103-0.1 0.172-0.153 0.367-0.153 0.566s0.053 0.394 0.153 0.566c-0.141-0.074-0.298-0.11-0.456-0.105s-0.313 0.051-0.449 0.133c-0.136 0.082-0.248 0.198-0.326 0.336s-0.119 0.294-0.119 0.453c0 0.159 0.041 0.315 0.119 0.453s0.19 0.254 0.326 0.336c0.136 0.082 0.29 0.128 0.449 0.133s0.316-0.031 0.456-0.105c-0.093 0.179-0.125 0.384-0.090 0.584s0.135 0.381 0.283 0.518 0.339 0.221 0.54 0.239c0.201 0.018 0.403-0.031 0.574-0.139-0.11 0.177-0.158 0.386-0.134 0.593s0.117 0.4 0.264 0.548c0.147 0.147 0.34 0.24 0.548 0.264s0.416-0.024 0.593-0.134c-0.086 0.137-0.135 0.295-0.141 0.457s0.030 0.323 0.106 0.467c0.075 0.144 0.187 0.265 0.324 0.352s0.295 0.136 0.457 0.143c0.162 0.007 0.323-0.029 0.467-0.104s0.265-0.187 0.352-0.324c0.087-0.137 0.137-0.294 0.144-0.456s-0.029-0.323-0.103-0.467c0.224 0.133 0.488 0.184 0.745 0.144l10.468 10.468 4.681-4.681-10.667-10.649 10.772-10.769-4.681-4.681zM41.59 17.833c0.066-0.128 0.101-0.27 0.101-0.415s-0.035-0.287-0.101-0.415c0.207 0.124 0.448 0.178 0.688 0.156-0.022 0.236 0.030 0.472 0.15 0.676-0.13-0.066-0.273-0.1-0.419-0.101s-0.289 0.033-0.42 0.098zM42.336 14.93c-0.253-0.037-0.51 0.014-0.73 0.144 0.072-0.141 0.106-0.298 0.1-0.455s-0.053-0.312-0.136-0.446c0.135 0.083 0.288 0.13 0.446 0.136s0.315-0.028 0.455-0.1c-0.125 0.218-0.173 0.472-0.135 0.721zM42.792 19.137c0.085-0.134 0.132-0.288 0.139-0.446s-0.029-0.315-0.103-0.456c0.22 0.13 0.477 0.181 0.73 0.144-0.037 0.253 0.014 0.511 0.144 0.73-0.142-0.074-0.3-0.11-0.459-0.104s-0.315 0.052-0.451 0.134v-0.003zM43.577 16.234c-0.143-0.039-0.293-0.039-0.436 0 0.050-0.153 0.050-0.318 0-0.472 0.069 0.038 0.144 0.061 0.223 0.068s0.157-0.003 0.231-0.029c-0.044 0.14-0.050 0.289-0.018 0.433zM43.619 13.65c-0.253-0.037-0.511 0.014-0.73 0.144 0.072-0.141 0.107-0.298 0.1-0.455s-0.053-0.312-0.136-0.446c0.135 0.083 0.288 0.13 0.446 0.136s0.315-0.028 0.456-0.1c-0.131 0.219-0.183 0.477-0.147 0.73l0.012-0.009zM44.075 20.402c0.085-0.134 0.133-0.288 0.139-0.446s-0.029-0.315-0.103-0.456c0.22 0.13 0.477 0.181 0.73 0.144-0.037 0.253 0.014 0.51 0.144 0.73-0.144-0.075-0.304-0.111-0.466-0.105s-0.319 0.055-0.456 0.141l0.012-0.009zM44.881 14.93c-0.143-0.039-0.293-0.039-0.436 0 0.046-0.154 0.039-0.319-0.018-0.469 0.070 0.037 0.146 0.059 0.225 0.065s0.157-0.004 0.232-0.029c-0.044 0.143-0.049 0.296-0.015 0.442l0.012-0.009zM44.817 17.049c-0.036 0.139-0.036 0.285 0 0.424-0.14-0.039-0.287-0.039-0.427 0 0.048-0.149 0.048-0.31 0-0.46 0.128 0.066 0.276 0.083 0.415 0.045l0.012-0.009zM44.899 12.379c-0.256-0.040-0.517 0.011-0.739 0.144 0.067-0.13 0.101-0.273 0.101-0.419s-0.035-0.29-0.101-0.419c0.144 0.074 0.305 0.108 0.467 0.1s0.319-0.058 0.455-0.145c-0.156 0.216-0.226 0.483-0.195 0.748l0.012-0.009zM46.079 16.111c-0.107-0.030-0.22-0.030-0.328 0 0.038-0.116 0.038-0.241 0-0.358 0.052 0.029 0.109 0.046 0.168 0.051s0.119-0.003 0.174-0.024c-0.038 0.109-0.047 0.226-0.027 0.339l0.012-0.009z"></path>
<path d="M42.676 10.279c-0.116-0.116-0.265-0.195-0.426-0.227s-0.329-0.015-0.481 0.048-0.282 0.17-0.373 0.307c-0.092 0.137-0.14 0.298-0.14 0.462s0.049 0.325 0.14 0.462c0.091 0.137 0.221 0.244 0.373 0.307s0.319 0.080 0.481 0.048c0.161-0.032 0.31-0.111 0.426-0.227 0.156-0.156 0.243-0.368 0.243-0.589s-0.087-0.432-0.243-0.589z"></path>
<path d="M40.178 19.308c-0.116 0.116-0.196 0.265-0.228 0.426s-0.015 0.329 0.048 0.481c0.063 0.152 0.17 0.282 0.307 0.373s0.298 0.14 0.462 0.14c0.164 0 0.325-0.049 0.462-0.14s0.244-0.221 0.307-0.373 0.080-0.319 0.048-0.481c-0.032-0.161-0.111-0.31-0.227-0.426-0.157-0.156-0.368-0.243-0.589-0.243s-0.432 0.087-0.589 0.243z"></path>
<path d="M32.403 26.189c0.040-0.040 0.068-0.091 0.079-0.146s0.006-0.113-0.016-0.165c-0.022-0.052-0.058-0.097-0.105-0.128s-0.102-0.048-0.159-0.048-0.112 0.017-0.159 0.048c-0.047 0.031-0.084 0.076-0.105 0.128s-0.027 0.11-0.016 0.165c0.011 0.055 0.038 0.106 0.079 0.146 0.053 0.053 0.126 0.083 0.201 0.083s0.148-0.030 0.201-0.083z"></path>
<path d="M38.941 18.070c-0.116 0.116-0.195 0.265-0.227 0.426s-0.016 0.329 0.048 0.481c0.063 0.152 0.17 0.282 0.307 0.373s0.298 0.14 0.462 0.14c0.165 0 0.325-0.049 0.462-0.14s0.244-0.221 0.307-0.373 0.080-0.319 0.048-0.481c-0.032-0.161-0.111-0.31-0.228-0.426-0.156-0.156-0.368-0.243-0.589-0.243s-0.432 0.087-0.589 0.243z"></path>
<path d="M36.823 28.364c-0.037 0.037-0.066 0.081-0.086 0.129s-0.030 0.1-0.030 0.152 0.010 0.104 0.030 0.152c0.020 0.048 0.049 0.092 0.086 0.129 0.075 0.074 0.176 0.115 0.281 0.115s0.206-0.041 0.281-0.115c0.075-0.075 0.116-0.176 0.116-0.281s-0.042-0.206-0.116-0.281c-0.075-0.074-0.176-0.116-0.281-0.116s-0.206 0.042-0.281 0.116z"></path>
<path d="M41.405 11.55c-0.116-0.116-0.265-0.195-0.426-0.227s-0.329-0.015-0.481 0.048c-0.152 0.063-0.282 0.17-0.373 0.307s-0.14 0.298-0.14 0.462 0.049 0.325 0.14 0.462c0.092 0.137 0.221 0.244 0.373 0.307s0.319 0.080 0.481 0.048c0.161-0.032 0.31-0.111 0.426-0.227 0.156-0.156 0.243-0.368 0.243-0.589s-0.087-0.432-0.243-0.589z"></path>
<path d="M33.382 29.491c-0.023 0.022-0.041 0.049-0.053 0.078s-0.019 0.060-0.019 0.092c0 0.032 0.006 0.063 0.019 0.092s0.030 0.056 0.053 0.078c0.034 0.034 0.076 0.057 0.123 0.066s0.095 0.004 0.139-0.014c0.044-0.018 0.081-0.049 0.108-0.089s0.041-0.086 0.041-0.134c0-0.048-0.014-0.094-0.041-0.134s-0.064-0.070-0.108-0.088c-0.044-0.018-0.092-0.023-0.139-0.014s-0.089 0.032-0.123 0.066z"></path>
<path d="M34.863 26.396c0.057-0.057 0.096-0.13 0.111-0.209s0.007-0.161-0.024-0.236c-0.031-0.074-0.083-0.138-0.151-0.183s-0.146-0.069-0.227-0.069c-0.081 0-0.16 0.024-0.227 0.069s-0.12 0.108-0.151 0.183c-0.031 0.075-0.039 0.156-0.024 0.236s0.054 0.152 0.111 0.209c0.077 0.077 0.181 0.12 0.29 0.12s0.213-0.043 0.29-0.12z"></path>
<path d="M34.71 28.833c0.186 0 0.336-0.151 0.336-0.336s-0.151-0.336-0.336-0.336c-0.186 0-0.336 0.151-0.336 0.336s0.151 0.336 0.336 0.336z"></path>
<path d="M34.668 30.777c-0.039 0.040-0.061 0.094-0.061 0.15s0.022 0.11 0.061 0.15c0.041 0.038 0.095 0.058 0.15 0.058s0.109-0.021 0.15-0.058c0.025-0.042 0.035-0.091 0.029-0.139s-0.028-0.093-0.063-0.128c-0.034-0.034-0.079-0.056-0.128-0.063s-0.097 0.004-0.139 0.029z"></path>
<path d="M33.25 4.573c-0.032 0.031-0.056 0.069-0.074 0.109s-0.026 0.085-0.026 0.129 0.009 0.088 0.026 0.129c0.017 0.041 0.042 0.078 0.074 0.109 0.064 0.062 0.15 0.097 0.239 0.097s0.175-0.035 0.239-0.097c0.031-0.031 0.056-0.069 0.073-0.11s0.026-0.085 0.026-0.129c0-0.044-0.009-0.088-0.026-0.129s-0.042-0.078-0.073-0.11c-0.031-0.031-0.068-0.056-0.11-0.073s-0.085-0.026-0.129-0.026c-0.044 0-0.088 0.009-0.129 0.026s-0.078 0.042-0.11 0.073z"></path>
<path d="M33.679 27.463c0.047-0.047 0.079-0.107 0.091-0.172s0.006-0.133-0.020-0.194c-0.026-0.061-0.069-0.114-0.124-0.151s-0.12-0.056-0.187-0.056-0.131 0.020-0.187 0.056c-0.055 0.037-0.098 0.089-0.124 0.151s-0.032 0.129-0.020 0.194c0.013 0.065 0.045 0.125 0.091 0.172 0.031 0.032 0.068 0.056 0.109 0.074s0.085 0.026 0.129 0.026 0.088-0.009 0.129-0.026c0.041-0.017 0.078-0.042 0.109-0.074z"></path>
<path d="M32.111 28.22c-0.023 0.022-0.041 0.048-0.053 0.078s-0.019 0.060-0.019 0.092c0 0.032 0.006 0.063 0.019 0.092s0.030 0.056 0.053 0.078c0.034 0.034 0.076 0.057 0.123 0.066s0.095 0.004 0.139-0.014c0.044-0.018 0.081-0.049 0.108-0.089s0.041-0.086 0.041-0.134c0-0.048-0.014-0.094-0.041-0.134s-0.064-0.070-0.108-0.088c-0.044-0.018-0.092-0.023-0.139-0.014s-0.089 0.032-0.123 0.066z"></path>
<path d="M33.613 25.155c0.057-0.057 0.096-0.13 0.111-0.209s0.007-0.161-0.024-0.236c-0.031-0.075-0.084-0.138-0.151-0.183s-0.146-0.069-0.227-0.069c-0.081 0-0.16 0.024-0.227 0.069s-0.12 0.108-0.151 0.183c-0.031 0.074-0.039 0.156-0.024 0.236s0.054 0.152 0.111 0.209c0.077 0.076 0.181 0.119 0.29 0.119s0.213-0.043 0.29-0.119z"></path>
<path d="M37.474 24.095c0.090-0.089 0.152-0.203 0.177-0.328s0.013-0.253-0.036-0.37c-0.048-0.117-0.13-0.218-0.236-0.288s-0.229-0.108-0.356-0.108c-0.127 0-0.251 0.038-0.356 0.108s-0.187 0.171-0.236 0.288c-0.048 0.117-0.061 0.246-0.036 0.37s0.087 0.238 0.177 0.328c0.12 0.119 0.282 0.186 0.451 0.186s0.331-0.067 0.451-0.186z"></path>
<path d="M36.119 27.667c0.057-0.057 0.095-0.13 0.111-0.209s0.007-0.161-0.024-0.236-0.083-0.138-0.151-0.183c-0.067-0.045-0.146-0.069-0.227-0.069s-0.16 0.024-0.227 0.069c-0.067 0.045-0.12 0.108-0.151 0.183s-0.039 0.156-0.024 0.236 0.054 0.152 0.111 0.209c0.077 0.076 0.181 0.12 0.29 0.12s0.213-0.043 0.29-0.12z"></path>
<path d="M35.78 29.566c-0.040 0.040-0.067 0.091-0.079 0.146s-0.006 0.113 0.016 0.165c0.022 0.052 0.058 0.097 0.105 0.128s0.102 0.048 0.159 0.048c0.057 0 0.112-0.017 0.159-0.048s0.084-0.076 0.105-0.128c0.022-0.052 0.027-0.11 0.016-0.165s-0.038-0.106-0.078-0.146c-0.054-0.053-0.126-0.083-0.201-0.083s-0.148 0.030-0.201 0.083z"></path>
<path d="M35.413 24.492c-0.075 0.075-0.127 0.171-0.147 0.275s-0.010 0.212 0.031 0.311c0.041 0.098 0.11 0.182 0.198 0.241s0.192 0.091 0.299 0.091 0.21-0.032 0.299-0.091c0.088-0.059 0.157-0.143 0.198-0.241s0.051-0.207 0.031-0.311-0.072-0.2-0.147-0.275c-0.101-0.101-0.238-0.157-0.38-0.157s-0.279 0.056-0.38 0.157z"></path>
<path d="M34.205 8.070c-0.072 0.072-0.121 0.163-0.14 0.263s-0.010 0.203 0.029 0.297c0.039 0.094 0.105 0.174 0.189 0.23s0.184 0.087 0.285 0.087c0.102 0 0.201-0.030 0.285-0.087s0.15-0.137 0.189-0.23c0.039-0.094 0.049-0.197 0.029-0.297s-0.069-0.191-0.14-0.263c-0.097-0.095-0.228-0.148-0.364-0.148s-0.266 0.053-0.364 0.148z"></path>
<path d="M36.219 22.845c0.081-0.085 0.136-0.192 0.157-0.308s0.008-0.235-0.039-0.344c-0.046-0.108-0.123-0.2-0.222-0.265s-0.213-0.099-0.331-0.099-0.233 0.035-0.331 0.099c-0.098 0.065-0.175 0.157-0.221 0.265s-0.060 0.228-0.039 0.344c0.021 0.116 0.076 0.223 0.157 0.308 0.116 0.114 0.272 0.178 0.434 0.178s0.318-0.064 0.434-0.178z"></path>
<path d="M34.19 23.272c-0.096 0.096-0.151 0.227-0.151 0.364s0.054 0.267 0.151 0.364c0.096 0.096 0.227 0.151 0.364 0.151s0.267-0.054 0.364-0.151c0.048-0.048 0.086-0.104 0.112-0.167s0.039-0.129 0.039-0.197-0.013-0.134-0.039-0.197c-0.026-0.062-0.064-0.119-0.112-0.167s-0.104-0.086-0.167-0.112c-0.062-0.026-0.129-0.039-0.197-0.039s-0.134 0.013-0.197 0.039c-0.062 0.026-0.119 0.064-0.167 0.112z"></path>
<path d="M34.521 3.314c-0.063 0.063-0.099 0.149-0.099 0.239s0.036 0.176 0.099 0.239c0.063 0.063 0.149 0.099 0.239 0.099s0.176-0.036 0.239-0.099c0.062-0.064 0.097-0.15 0.097-0.239s-0.035-0.175-0.097-0.239c-0.031-0.032-0.068-0.057-0.109-0.074s-0.085-0.026-0.129-0.026-0.088 0.009-0.129 0.026c-0.041 0.017-0.078 0.042-0.109 0.074z"></path>
<path d="M154.204 4.552c-1.737-1.827-4.043-2.74-6.92-2.74h-6.397c-1.346 0-3.263 0.559-4.606 1.304s-2.506 1.671-2.683 1.947v-2.809h-6.009v27.971h6.46v-15.525c0-2.404 1.112-3.882 2.241-5.012 1.389-1.393 3.256-2.207 5.222-2.275h5.108c0.517-0.013 1.030 0.094 1.5 0.313s0.881 0.542 1.205 0.946c0.691 0.841 1.037 1.935 1.037 3.281v18.272h6.445v-18.44c0.004-2.989-0.863-5.399-2.602-7.232z"></path>
</symbol>
<symbol id="wcag-iconwcag-ui" viewBox="0 0 93 32">
<title>wcag-ui</title>
<path d="M19.028 9.643l-3.345 12.361h-4.187l-1.949-8.019-2.016 8.019h-4.165l-3.367-12.361h3.788l1.75 8.839 2.082-8.839h4.010l2.104 8.794 1.728-8.794h3.567zM19.719 15.824c0-1.285 0.258-2.407 0.775-3.367 0.532-0.96 1.263-1.698 2.193-2.215 0.945-0.517 2.023-0.775 3.234-0.775 1.551 0 2.843 0.406 3.877 1.218 1.049 0.812 1.735 1.957 2.060 3.434h-4.032c-0.34-0.945-0.997-1.418-1.972-1.418-0.694 0-1.248 0.273-1.661 0.82-0.413 0.532-0.62 1.3-0.62 2.304s0.207 1.78 0.62 2.326c0.414 0.532 0.967 0.797 1.661 0.797 0.975 0 1.632-0.473 1.972-1.418h4.032c-0.325 1.447-1.012 2.584-2.060 3.411s-2.341 1.241-3.877 1.241c-1.211 0-2.289-0.258-3.234-0.775-0.93-0.517-1.661-1.255-2.193-2.215-0.517-0.96-0.775-2.082-0.775-3.367zM33.132 15.802c0-1.27 0.236-2.385 0.709-3.345 0.487-0.96 1.145-1.698 1.972-2.215s1.75-0.775 2.769-0.775c0.871 0 1.632 0.177 2.282 0.532 0.665 0.354 1.174 0.82 1.529 1.396v-1.75h3.788v12.361h-3.788v-1.75c-0.369 0.576-0.886 1.041-1.551 1.396-0.65 0.354-1.41 0.532-2.282 0.532-1.004 0-1.92-0.258-2.747-0.775-0.827-0.532-1.484-1.277-1.972-2.237-0.473-0.975-0.709-2.097-0.709-3.367zM42.391 15.824c0-0.945-0.266-1.691-0.797-2.237-0.517-0.546-1.152-0.82-1.905-0.82s-1.396 0.273-1.927 0.82c-0.517 0.532-0.775 1.27-0.775 2.215s0.258 1.698 0.775 2.26c0.532 0.546 1.174 0.82 1.927 0.82s1.388-0.273 1.905-0.82c0.532-0.546 0.797-1.292 0.797-2.237zM53.616 9.466c0.871 0 1.632 0.177 2.282 0.532 0.665 0.354 1.174 0.82 1.529 1.396v-1.75h3.788v12.339c0 1.137-0.229 2.164-0.687 3.079-0.443 0.93-1.13 1.669-2.060 2.215-0.916 0.546-2.060 0.82-3.434 0.82-1.831 0-3.315-0.436-4.453-1.307-1.137-0.857-1.787-2.023-1.949-3.5h3.744c0.118 0.473 0.399 0.842 0.842 1.108 0.443 0.281 0.989 0.421 1.639 0.421 0.783 0 1.403-0.229 1.861-0.687 0.472-0.443 0.709-1.159 0.709-2.149v-1.75c-0.369 0.576-0.879 1.049-1.529 1.418-0.65 0.354-1.411 0.532-2.282 0.532-1.019 0-1.942-0.258-2.769-0.775-0.827-0.532-1.484-1.277-1.972-2.237-0.473-0.975-0.709-2.097-0.709-3.367s0.236-2.385 0.709-3.345c0.487-0.96 1.145-1.698 1.972-2.215s1.75-0.775 2.769-0.775zM57.426 15.824c0-0.945-0.266-1.691-0.797-2.237-0.517-0.546-1.152-0.82-1.905-0.82s-1.396 0.273-1.927 0.82c-0.517 0.532-0.775 1.27-0.775 2.215s0.258 1.698 0.775 2.26c0.532 0.546 1.174 0.82 1.927 0.82s1.388-0.273 1.905-0.82c0.532-0.546 0.797-1.292 0.797-2.237z"></path>
<path d="M72.060 12.441c0.141 0.027 0.141 0.027 0.234 0.093 0.074 0.118 0.063 0.169 0.038 0.301-0.048 0.11-0.107 0.214-0.167 0.319-0.017 0.031-0.035 0.063-0.053 0.095-0.038 0.068-0.076 0.136-0.114 0.204-0.083 0.146-0.164 0.293-0.246 0.44-0.043 0.077-0.085 0.153-0.128 0.23-0.2 0.359-0.396 0.72-0.59 1.081-0.093 0.172-0.186 0.344-0.279 0.516-0.018 0.034-0.037 0.068-0.056 0.103-0.195 0.362-0.391 0.724-0.588 1.085-0.038 0.069-0.075 0.138-0.112 0.207-0.052 0.095-0.103 0.19-0.155 0.285-0.015 0.028-0.030 0.056-0.046 0.085-0.223 0.408-0.223 0.408-0.343 0.45-0.247-0.004-0.247-0.004-0.355-0.065-0.070-0.142-0.038-0.295 0.018-0.436 0.044-0.088 0.090-0.173 0.138-0.259 0.018-0.032 0.035-0.065 0.054-0.098 0.058-0.106 0.117-0.212 0.176-0.319 0.041-0.075 0.082-0.15 0.123-0.225 0.085-0.154 0.169-0.309 0.255-0.463 0.117-0.212 0.233-0.424 0.348-0.637 0.018-0.033 0.036-0.065 0.054-0.099 0.035-0.065 0.070-0.13 0.106-0.195 0.088-0.16 0.175-0.321 0.263-0.481 0.142-0.259 0.283-0.519 0.424-0.778 0.017-0.032 0.034-0.064 0.053-0.097 0.097-0.18 0.195-0.359 0.293-0.539 0.042-0.077 0.084-0.153 0.125-0.23 0.044-0.081 0.088-0.162 0.131-0.244 0.024-0.046 0.024-0.046 0.049-0.092 0.013-0.025 0.026-0.050 0.039-0.075 0.085-0.125 0.141-0.157 0.31-0.162z"></path>
<path d="M66.503 17.166c-0.589-0.377-1.334-0.352-1.861 0.126-0.232 0.258-0.35 0.505-0.397 0.8l0.373 0.124c0.012-0.033 0.030-0.067 0.058-0.108 0.239-0.13 0.51-0.14 0.751-0.013 0.063 0.078 0.088 0.134 0.096 0.21h0.234c0.003-0.065 0.023-0.119 0.075-0.198 0.24-0.13 0.51-0.14 0.751-0.013 0.033 0.041 0.056 0.076 0.071 0.112l0.406-0.102c-0.001-0.022-0.002-0.043-0.004-0.065-0.073-0.341-0.276-0.668-0.555-0.875zM66.683 18.352c0.001 0.020 0.001 0.041 0 0.064-0.061 0.158-0.118 0.24-0.266 0.323-0.137 0.059-0.235 0.059-0.38 0.017-0.131-0.071-0.202-0.176-0.272-0.306-0.002-0.025-0.004-0.048-0.006-0.070h-0.231c0 0.011 0 0.023-0.001 0.035-0.061 0.158-0.118 0.24-0.266 0.323-0.137 0.059-0.235 0.059-0.38 0.017-0.131-0.071-0.202-0.176-0.272-0.306-0.003-0.031-0.006-0.059-0.007-0.084l-0.373-0.124c-0.005 0.063-0.007 0.128-0.007 0.196 0.007 0.361 0.166 0.679 0.421 0.931 0.325 0.301 0.682 0.413 1.123 0.408 0.41-0.038 0.708-0.215 0.984-0.513 0.265-0.315 0.323-0.634 0.318-1.008l-0.383 0.096zM66.19 19.252c0 0-0.328 0.358-0.554 0.369-0.251 0.013-0.554-0.369-0.554-0.369h1.108z"></path>
<path d="M62.701 23.342c-0.394 0.785-1.568 0.095-1.176-0.688 0.647-1.292 1.629-2.261 3.044-2.652 0.199-0.055 0.371-0.024 0.507 0.057 1.571 0.4 2.39-0.863 3.143-2.089 0.459-0.746 1.636-0.063 1.175 0.687-0.719 1.171-1.564 2.249-2.703 2.667 0.056 0.148 0.089 0.308 0.089 0.477v3.511c0.303 1.682 0.608 3.364 0.911 5.047 0.156 0.858-1.156 1.225-1.313 0.362-0.285-1.581-0.571-3.162-0.857-4.744-0.080 0.001-0.161 0.001-0.241-0.003-0.091 0.25-0.194 0.496-0.296 0.739-0.176 0.417-0.363 1.029-0.774 1.281-0.95 0.582-1.837-0.287-2.211-1.123-0.151-0.339-0.101-0.729 0.244-0.932 0.294-0.172 0.78-0.095 0.932 0.244 0.076 0.173 0.174 0.334 0.281 0.488 0.004 0.005 0.022 0.021 0.044 0.041 0.253-0.467 0.458-0.994 0.602-1.504v-3.409c0-0.044 0.002-0.087 0.007-0.13-0.619 0.384-1.056 0.965-1.408 1.671z"></path>
<path d="M77.729 1.332l-1.341 9.207c-0.134 0.921-0.011 1.662 0.37 2.225s1.009 0.908 1.886 1.036c0.877 0.128 1.585-0.023 2.125-0.452s0.877-1.104 1.011-2.024l1.341-9.207 3.749 0.546-1.338 9.185c-0.2 1.374-0.661 2.493-1.384 3.358s-1.617 1.466-2.68 1.803c-1.049 0.34-2.181 0.421-3.394 0.244s-2.268-0.569-3.164-1.177c-0.88-0.621-1.528-1.446-1.945-2.477-0.415-1.045-0.522-2.255-0.322-3.629l1.337-9.185 3.749 0.546zM93.251 3.593l-2.241 15.389-3.749-0.546 2.241-15.389 3.748 0.546z"></path>
</symbol>
<symbol id="wcag-iconchevron-up" viewBox="0 0 32 32">
<title>chevron-up</title>
<path d="M3.76 25.88l12.24-12.213 12.24 12.213 3.76-3.76-16-16-16 16 3.76 3.76z"></path>
</symbol>
<symbol id="wcag-iconchevron-right" viewBox="0 0 32 32">
<title>chevron-right</title>
<path d="M6.12 3.76l12.213 12.24-12.213 12.24 3.76 3.76 16-16-16-16-3.76 3.76z"></path>
</symbol>
<symbol id="wcag-iconchevron-down" viewBox="0 0 32 32">
<title>chevron-down</title>
<path d="M3.76 6.12l12.24 12.213 12.24-12.213 3.76 3.76-16 16-16-16 3.76-3.76z"></path>
</symbol>
<symbol id="wcag-iconchevron-left" viewBox="0 0 32 32">
<title>chevron-left</title>
<path d="M25.88 28.24l-12.213-12.24 12.213-12.24-3.76-3.76-16 16 16 16 3.76-3.76z"></path>
</symbol>
<symbol id="wcag-iconcheckmark" viewBox="0 0 32 32">
<title>checkmark</title>
<path d="M10.182 23.091l-7.636-7.636-2.545 2.545 10.182 10.182 21.818-21.818-2.545-2.545-19.273 19.273z"></path>
</symbol>
<symbol id="wcag-iconcopy" viewBox="0 0 32 32">
<title>copy</title>
<path d="M22.545 0h-17.455c-1.6 0-2.909 1.309-2.909 2.909v20.364h2.909v-20.364h17.455v-2.909zM26.909 5.818h-16c-1.6 0-2.909 1.309-2.909 2.909v20.364c0 1.6 1.309 2.909 2.909 2.909h16c1.6 0 2.909-1.309 2.909-2.909v-20.364c0-1.6-1.309-2.909-2.909-2.909zM26.909 29.091h-16v-20.364h16v20.364z"></path>
</symbol>
<symbol id="wcag-icongithub" viewBox="0 0 32 32">
<title>github</title>
<path d="M16.013 0c-8.821 0-15.952 7.333-15.952 16.406 0 7.252 4.569 13.391 10.908 15.563 0.793 0.163 1.083-0.353 1.083-0.787 0-0.38-0.026-1.684-0.026-3.042-4.438 0.978-5.362-1.956-5.362-1.956-0.713-1.901-1.77-2.39-1.77-2.39-1.452-1.005 0.106-1.005 0.106-1.005 1.611 0.109 2.457 1.684 2.457 1.684 1.426 2.499 3.724 1.793 4.648 1.358 0.132-1.059 0.555-1.793 1.004-2.2-3.539-0.38-7.263-1.793-7.263-8.094 0-1.793 0.633-3.259 1.637-4.4-0.158-0.407-0.713-2.092 0.159-4.346 0 0 1.347-0.435 4.384 1.684 1.3-0.359 2.641-0.542 3.988-0.543 1.347 0 2.72 0.19 3.988 0.543 3.037-2.119 4.384-1.684 4.384-1.684 0.872 2.254 0.317 3.939 0.158 4.346 1.030 1.141 1.637 2.607 1.637 4.4 0 6.302-3.724 7.687-7.289 8.094 0.581 0.516 1.083 1.494 1.083 3.042 0 2.2-0.026 3.966-0.026 4.509 0 0.435 0.291 0.951 1.083 0.788 6.339-2.173 10.908-8.312 10.908-15.564 0.026-9.072-7.131-16.406-15.926-16.406z"></path>
</symbol>
<symbol id="wcag-iconscheme-system" viewBox="0 0 32 32">
<title>scheme-system</title>
<path d="M28.8 1.6h-25.6c-1.76 0-3.2 1.44-3.2 3.2v17.6c0 1.76 1.44 3.2 3.2 3.2h4.8l-1.6 1.6v3.2h19.2v-3.2l-1.6-1.6h4.8c1.76 0 3.2-1.44 3.2-3.2v-17.6c0-1.76-1.44-3.2-3.2-3.2zM28.8 22.4h-25.6v-17.6h25.6v17.6z"></path>
</symbol>
<symbol id="wcag-iconscheme-light" viewBox="0 0 32 32">
<title>scheme-light</title>
<path d="M8.378 6.313l-2.618-2.604-2.051 2.051 2.604 2.604 2.065-2.051zM0 14.545h4.364v2.909h-4.364v-2.909zM14.545 0.073h2.909v4.291h-2.909v-4.291zM26.24 3.702l2.048 2.047-2.604 2.604-2.047-2.048 2.602-2.602zM23.622 25.687l2.604 2.618 2.051-2.051-2.618-2.604-2.036 2.036zM27.636 14.545h4.364v2.909h-4.364v-2.909zM16 7.273c-4.815 0-8.727 3.913-8.727 8.727s3.913 8.727 8.727 8.727c4.815 0 8.727-3.913 8.727-8.727s-3.913-8.727-8.727-8.727zM16 21.818c-3.215 0-5.818-2.604-5.818-5.818s2.604-5.818 5.818-5.818c3.215 0 5.818 2.604 5.818 5.818s-2.604 5.818-5.818 5.818zM14.545 27.636h2.909v4.291h-2.909v-4.291zM3.709 26.24l2.051 2.051 2.604-2.618-2.051-2.051-2.604 2.618z"></path>
</symbol>
<symbol id="wcag-iconscheme-dark" viewBox="0 0 32 32">
<title>scheme-dark</title>
<path d="M21.6 32c1.68 0 3.28-0.256 4.8-0.736-6.496-2.032-11.2-8.096-11.2-15.264s4.704-13.232 11.2-15.264c-1.52-0.48-3.12-0.736-4.8-0.736-8.832 0-16 7.168-16 16s7.168 16 16 16z"></path>
</symbol>
<symbol id="wcag-iconfigma" viewBox="0 0 32 32">
<title>figma</title>
<path d="M7.621 10.989c-1.636-1.066-2.718-2.913-2.718-5.011 0-3.301 2.676-5.977 5.977-5.977h10.241c3.301 0 5.977 2.676 5.977 5.977 0 2.099-1.082 3.945-2.718 5.011 1.637 1.066 2.718 2.913 2.718 5.011 0 3.301-2.676 5.977-5.977 5.977h-0.109c-1.56 0-2.981-0.598-4.046-1.577v5.568c0 3.338-2.735 6.032-6.059 6.032-3.294 0-6.004-2.669-6.004-5.977 0-2.099 1.082-3.945 2.718-5.011-1.636-1.066-2.718-2.913-2.718-5.012s1.082-3.945 2.718-5.011zM16.966 16c0 2.234 1.811 4.046 4.046 4.046h0.109c2.234 0 4.046-1.811 4.046-4.046s-1.811-4.046-4.046-4.046h-0.109c-2.234 0-4.046 1.811-4.046 4.046zM15.034 11.954h-4.155c-2.234 0-4.046 1.811-4.046 4.046 0 2.23 1.804 4.038 4.032 4.046h4.168v-8.091zM10.88 21.977c-0.005 0-0.009 0-0.014 0-2.228 0.007-4.032 1.816-4.032 4.046 0 2.228 1.832 4.046 4.073 4.046 2.271 0 4.128-1.843 4.128-4.1v-3.991h-4.155zM15.034 10.023v-8.091h-4.155c-2.234 0-4.046 1.811-4.046 4.046s1.811 4.046 4.046 4.046h4.155zM21.12 10.023c2.234 0 4.046-1.811 4.046-4.046s-1.811-4.046-4.046-4.046h-4.155v8.091h4.155z"></path>
</symbol>
<symbol id="wcag-iconlinked-in" viewBox="0 0 32 32">
<title>linked-in</title>
<path d="M28.19 0h-24.381c-2.103 0-3.81 1.707-3.81 3.81v24.381c0 2.103 1.707 3.81 3.81 3.81h24.381c2.103 0 3.81-1.707 3.81-3.81v-24.381c0-2.103-1.707-3.81-3.81-3.81zM9.905 12.19v14.476h-4.571v-14.476h4.571zM5.333 7.977c0-1.067 0.914-1.882 2.286-1.882s2.232 0.815 2.286 1.882c0 1.067-0.853 1.928-2.286 1.928-1.371 0-2.286-0.861-2.286-1.928zM26.667 26.667h-4.572c0 0 0-7.055 0-7.619 0-1.524-0.762-3.048-2.667-3.078h-0.061c-1.844 0-2.606 1.57-2.606 3.078 0 0.693 0 7.619 0 7.619h-4.571v-14.476h4.571v1.95c0 0 1.47-1.95 4.427-1.95 3.025 0 5.478 2.080 5.478 6.293v8.183z"></path>
</symbol>
</defs>
</svg>
